<svg xmlns="http://www.w3.org/2000/svg" version="1.1" xmlns:xlink="http://www.w3.org/1999/xlink" width="512" height="512" x="0" y="0" viewBox="0 0 60 60" style="enable-background:new 0 0 512 512" xml:space="preserve" class=""><g><path fill="#d8d8d8" d="m32 46 4 9H5a4 4 0 0 1-4-4v-5z" opacity="1" data-original="#d8d8d8" class=""></path><path fill="#ab7c1c" d="M5 1h1v46H5a3.995 3.995 0 0 0-4 4V5a4 4 0 0 1 4-4z" opacity="1" data-original="#994848" class=""></path><path fill="#d8950b" d="M41 3v28.58L32 47H5V1h34a2.006 2.006 0 0 1 2 2z" opacity="1" data-original="#cc5b5b" class=""></path><rect width="26" height="14" x="10" y="8" fill="#ffffff" rx="2" opacity="1" data-original="#ffffff" class=""></rect><circle cx="45" cy="45" r="14" fill="#3facaf" opacity="1" data-original="#3facaf"></circle><g fill="#373737"><path d="M37 20V10a3 3 0 0 0-3-3H12a3 3 0 0 0-3 3v10a3 3 0 0 0 3 3h22a3 3 0 0 0 3-3zm-2 0a1 1 0 0 1-1 1H12a1 1 0 0 1-1-1V10a1 1 0 0 1 1-1h22a1 1 0 0 1 1 1z" fill="#373737" opacity="1" data-original="#373737" class=""></path><path d="M45 30a15.017 15.017 0 0 0-15 15c0 .338.029.668.051 1H6V2h33a1 1 0 0 1 1 1v24a1 1 0 0 0 2 0V3a3 3 0 0 0-3-3H5a5.006 5.006 0 0 0-5 5v46a5.006 5.006 0 0 0 5 5h29.836A14.99 14.99 0 1 0 45 30zM4 2.184V46.1a5 5 0 0 0-2 .923V5a3 3 0 0 1 2-2.816zM2 51a2.994 2.994 0 0 1 3-3h25.3a14.79 14.79 0 0 0 .573 2H28a1 1 0 0 0 0 2h3.743a15.125 15.125 0 0 0 1.285 2H5a3 3 0 0 1-3-3zm43 7a13 13 0 1 1 13-13 13.015 13.015 0 0 1-13 13z" fill="#373737" opacity="1" data-original="#373737" class=""></path><path d="M11 27a1 1 0 0 0 0 2h23a1 1 0 0 0 0-2zM24 50H6a1 1 0 0 0 0 2h18a1 1 0 0 0 0-2zM52 44h-6v-6a1 1 0 0 0-2 0v6h-6a1 1 0 0 0 0 2h6v6a1 1 0 0 0 2 0v-6h6a1 1 0 0 0 0-2z" fill="#373737" opacity="1" data-original="#373737" class=""></path></g></g></svg>