<svg xmlns="http://www.w3.org/2000/svg" version="1.1" xmlns:xlink="http://www.w3.org/1999/xlink" width="512" height="512" x="0" y="0" viewBox="0 0 60 60" style="enable-background:new 0 0 512 512" xml:space="preserve" class=""><g><g fill="none" fill-rule="nonzero"><path fill="#e91e63" d="m57.53 15.21-4.95 4.96L39.83 7.42 41.25 6l3.54-3.53a5 5 0 0 1 7.08 0l5.66 5.66a5 5 0 0 1 0 7.08z" opacity="1" data-original="#e91e63" class=""></path><path fill="#ad1457" d="m57.53 8.13-5.66-5.66a4.986 4.986 0 0 0-5.043-1.217c.77.234 1.47.652 2.043 1.217l5.66 5.66a5 5 0 0 1 0 7.08l-3.452 3.458 1.5 1.5 4.95-4.96a5 5 0 0 0 .002-7.078z" opacity="1" data-original="#ad1457" class=""></path><path fill="#66c8e9" d="M20 52.74a3.002 3.002 0 0 0-4.25-4.24l20.54-20.54 3.54-3.54 2.83-2.83 4.25 4.24z" opacity="1" data-original="#ff9801" class=""></path><path fill="#015d78" d="m16.273 47.977-.523.523a3 3 0 0 1 .627-.468c-.034-.02-.069-.032-.104-.055zM46.91 25.83l-4.25-4.24-1.5 1.5 2.75 2.74-23.39 23.39a2.971 2.971 0 0 1-.52 3.52z" opacity="1" data-original="#f57c00" class=""></path><path fill="#66c8e9" d="M38.41 17.34 18.59 37.16l-3.54 3.55-3.55 3.54A3.002 3.002 0 0 0 7.26 40l26.91-26.91z" opacity="1" data-original="#ff9801" class=""></path><path fill="#9e9e9e" d="m52.58 20.17-5.67 5.66-4.25-4.24-4.25-4.25-4.24-4.25 5.66-5.67z" opacity="1" data-original="#9e9e9e" class=""></path><path fill="#707070" d="m39.83 7.42-1.499 1.501L49.58 20.17l-4.17 4.163 1.5 1.497 5.67-5.66z" opacity="1" data-original="#707070" class=""></path><path fill="#f5f5f5" d="M46.2 7.715a1 1 0 0 1-.7-1.707 4 4 0 0 1 3.415-1.434c.576.077 1.113.33 1.539.725a1.001 1.001 0 0 1-1.4 1.431c-.139-.119-.85-.6-2.144.692a1 1 0 0 1-.71.293z" opacity="1" data-original="#f5f5f5" class=""></path><path fill="#ffe0b2" d="M20 52.74 18.74 54a1.938 1.938 0 0 1-.82.5l-9.61 2.96a6.884 6.884 0 0 0-1.96-3.81 6.884 6.884 0 0 0-3.81-1.96l2.96-9.61c.095-.311.267-.593.5-.82L7.26 40a3.002 3.002 0 0 1 4.24 4.25 3.005 3.005 0 0 1 4.25 4.25A3.002 3.002 0 1 1 20 52.74z" opacity="1" data-original="#ffe0b2" class=""></path><g fill="#dfc49c"><path d="M12.75 44.25a2.994 2.994 0 0 1 0 4.25 2.988 2.988 0 0 1 3.437-.569 2.993 2.993 0 0 0-4.06-4.149c.227.128.437.285.623.468zM20 48.5a2.98 2.98 0 0 0-3.623-.468A2.97 2.97 0 0 1 17 52.74L15.74 54a1.938 1.938 0 0 1-.82.5L8.1 56.6c.087.282.157.57.208.86l9.61-2.96c.311-.095.593-.267.82-.5L20 52.74a2.982 2.982 0 0 0 0-4.24zM8.5 40a2.994 2.994 0 0 1 0 4.25 2.988 2.988 0 0 1 3.437-.569 2.991 2.991 0 0 0-4.057-4.148c.226.128.435.285.62.467z" fill="#dfc49c" opacity="1" data-original="#dfc49c" class=""></path></g><path fill="#37474f" d="M8.31 57.46 3.6 58.91a2.011 2.011 0 0 1-2.51-2.51l1.45-4.71a6.884 6.884 0 0 1 3.81 1.96 6.884 6.884 0 0 1 1.96 3.81z" opacity="1" data-original="#37474f" class=""></path><path fill="#34b4e0" d="m42.66 21.59-2.83 2.83-3.54 3.54L15.75 48.5a3.005 3.005 0 0 0-4.25-4.25l3.55-3.54 3.54-3.55 19.82-19.82z" opacity="1" data-original="#ff5722" class=""></path><path fill="#000000" d="M2.974 59.992A.221.221 0 0 0 3 60h21a1 1 0 0 0 0-2H9.947l8.263-2.543c.467-.144.893-.4 1.239-.746l1.26-1.26 26.909-26.912 5.665-5.665 4.957-4.957a6.015 6.015 0 0 0 0-8.5l-5.665-5.661a6.008 6.008 0 0 0-8.5 0l-5.357 5.362-5.261 5.26-26.909 26.91-1.26 1.26a3 3 0 0 0-.746 1.238L.135 56.1a3 3 0 0 0 2.839 3.888zM3.3 57.95a1.005 1.005 0 0 1-1.255-1.257L3.22 52.88a5.963 5.963 0 0 1 3.9 3.9zm17.409-10.164a3.938 3.938 0 0 0-1.809-1.022L37 28.663a1 1 0 0 0-1.414-1.414l-18.1 18.1a3.839 3.839 0 0 0-2.837-2.833l1.11-1.109A1 1 0 0 0 14.338 40l-1.1 1.1a3.893 3.893 0 0 0-2.838-2.835L34.164 14.5 37 17.334 17.878 36.455a1 1 0 1 0 1.414 1.414l19.121-19.121 2.835 2.835-2.125 2.126a1 1 0 1 0 1.414 1.414L42.662 23l2.838 2.832L21.731 49.6a3.959 3.959 0 0 0-1.022-1.814zm26.2-23.368-3.542-3.542-7.79-7.79 3.913-3.912.34-.34 11.332 11.333zM45.494 3.17a4.009 4.009 0 0 1 5.667 0l5.665 5.665a4.015 4.015 0 0 1 0 5.668l-4.25 4.25L41.244 7.42zm-39.04 39.2a1 1 0 0 1 .248-.412l1.26-1.26a2.007 2.007 0 1 1 2.838 2.838.976.976 0 0 0-.257.519c-.018.061-.03.124-.036.188a1 1 0 0 0 1.707.707 2.005 2.005 0 0 1 2.835 2.835A1 1 0 1 0 16.46 49.2a2.006 2.006 0 0 1 2.84 2.834l-1.26 1.26c-.115.115-.257.2-.413.249l-8.6 2.646a7.941 7.941 0 0 0-5.217-5.218zM32 60a1 1 0 0 0 0-2h-3a1 1 0 0 0 0 2z" opacity="1" data-original="#000000" class=""></path></g></g></svg>