<svg xmlns="http://www.w3.org/2000/svg" version="1.1" xmlns:xlink="http://www.w3.org/1999/xlink" width="512" height="512" x="0" y="0" viewBox="0 0 480.006 480.006" style="enable-background:new 0 0 512 512" xml:space="preserve" class=""><g><path fill="#daffbf" d="M399.003 8h-295c-21.54 0-39 17.46-39 39 0 51.53-.119 379.661.01 365.603C64.804 434.301 83.026 452 104.773 452h283.23a8 8 0 0 0 8-8v-70h3c8.84 0 16-7.16 16-16V24c0-8.84-7.16-16-16-16z" opacity="1" data-original="#daffbf" class=""></path><path fill="#befa91" d="M415.003 140.594V358c0 8.837-7.163 16-16 16h-287V159.385c0-5.912 6.182-9.778 11.499-7.193 88.233 42.898 192.425 39.04 279.097-18.271 5.319-3.517 12.404.296 12.404 6.673z" opacity="1" data-original="#befa91" class=""></path><path fill="#befa91" d="M112.003 8v366h-8c-21.54 0-39 17.46-39 39V47c0-21.54 17.46-39 39-39z" opacity="1" data-original="#befa91" class=""></path><path fill="#9ceb63" d="M112.003 154.27V374h-8c-21.54 0-39 17.46-39 39V162.475c0-2.259.961-4.407 2.625-5.935 6.944-6.375 16.207-10.269 26.375-10.269h10a7.999 7.999 0 0 1 8 7.999z" opacity="1" data-original="#9ceb63"></path><path fill="#ffebd2" d="M396.003 374v70a8 8 0 0 1-8 8h-283.23c-21.869 0-40.181-17.896-39.762-39.761C65.418 391.051 82.718 374 104.003 374z" opacity="1" data-original="#ffebd2"></path><path fill="#ffd9ad" d="M396.003 374v6a8 8 0 0 1-8 8h-260c-25.266 0-41.882 22.714-38.587 44.686 1.165 7.768-8.26 12.51-13.675 6.82C52.179 414.746 69.976 374 104.003 374z" opacity="1" data-original="#ffd9ad"></path><path fill="#585966" d="M201.323 413v47.06c0 7.86-7.5 13.57-15.13 11.52l-18.19-4.89-18.19 4.89c-7.63 2.05-15.13-3.66-15.13-11.52V413z" opacity="1" data-original="#585966"></path><path fill="#6e6f80" d="M155.832 465.177c1.06 2.222-.277 4.86-2.654 5.498l-3.365.904c-7.63 2.05-15.13-3.66-15.13-11.52V413h20v47.06c0 1.85.415 3.58 1.149 5.117z" opacity="1" data-original="#6e6f80"></path><circle cx="264.033" cy="221" r="111" fill="#ffffff" opacity="1" data-original="#ffffff"></circle><path fill="#eef7ff" d="M375.015 222.993c-1.047 59.656-49.796 108.194-109.456 108.996-62.01.833-112.527-49.182-112.527-110.99 0-16.387 3.552-31.95 9.933-45.954 1.631-3.579 5.641-5.411 9.43-4.356 60.927 16.963 122.655 12.633 177.538-9.186 3.68-1.463 7.878-.042 9.884 3.374 9.986 17.002 15.571 36.898 15.198 58.116z" opacity="1" data-original="#eef7ff"></path><path fill="#6e6f80" d="M312.923 245.65c4.82 11.41 4.5 28.95-8.26 38.68-19.06 14.53-39.39-1.66-40.74-2.07-1.46.44-21.68 16.61-40.75 2.07-12.76-9.73-13.024-27.246-8.25-38.68.142-.339 3.92-10.79 16.36-17.33.37-.6 2.31-30.16 32.63-30.17 29.95-.01 32.44 29.84 32.65 30.17 3.45 1.82 11.99 6.99 16.36 17.33z" opacity="1" data-original="#6e6f80"></path><path d="M264.032 340.001c32.928 0 63.561-13.146 86.257-37.019a8.002 8.002 0 0 0-.285-11.311 8.002 8.002 0 0 0-11.311.285C319.047 312.62 292.532 324 264.032 324c-56.795 0-103.001-46.206-103.001-103.001s46.206-103.001 103.001-103.001c72.946 0 122.661 74.044 95.619 141.368a8 8 0 0 0 4.442 10.405 7.997 7.997 0 0 0 10.405-4.442c31.355-78.067-26.476-163.331-110.467-163.331-65.617 0-119.001 53.384-119.001 119.001s53.385 119.002 119.002 119.002zM354.003 70a8 8 0 0 0 0-16h-19.581a8 8 0 0 0 0 16zM287.067 70a8 8 0 0 0 0-16H174.003a8 8 0 0 0 0 16z" fill="#000000" opacity="1" data-original="#000000" class=""></path><path d="M218.321 290.688c9.254 7.058 24.533 12.703 45.588.865 15.624 8.8 31.636 9.793 45.608-.865 15.454-11.785 17.116-33.146 10.771-48.157-4.119-9.743-11.189-15.828-16.541-19.27-3.692-16.589-15.8-33.11-39.823-33.11-4.177 0-8.375.486-12.382 1.603a8.002 8.002 0 0 0-5.561 9.854 8.006 8.006 0 0 0 9.854 5.561c2.599-.724 5.368-1.017 8.088-1.017 18.354 0 23.325 14.383 24.653 22.956.484 3.137 2.082 5.152 4.265 6.297 3.391 1.78 9.55 5.882 12.711 13.357 3.19 7.548 4.296 21.554-5.736 29.204-14.567 11.113-29.7-2.18-33.568-3.358a7.987 7.987 0 0 0-4.659 0c-3.937 1.2-19.018 14.451-33.564 3.358-8.802-6.713-9.742-19.025-5.632-29.459.327-.835 3.461-8.294 12.613-13.105a8 8 0 1 0-7.445-14.162c-29.093 15.29-30.105 53.536-9.24 69.448zM339.901 194.242c0-9.424-7.178-17.091-16-17.091s-16 7.667-16 17.091c0 9.425 7.178 17.092 16 17.092s16-7.667 16-17.092z" fill="#000000" opacity="1" data-original="#000000" class=""></path><ellipse cx="285.966" cy="157.639" rx="16" ry="17.091" fill="#000000" opacity="1" data-original="#000000" class=""></ellipse><ellipse cx="242.04" cy="157.639" rx="16" ry="17.091" fill="#000000" opacity="1" data-original="#000000" class=""></ellipse><path d="M220.104 194.242c0-9.424-7.178-17.091-16-17.091s-16 7.667-16 17.091c0 9.425 7.178 17.092 16 17.092s16-7.667 16-17.092z" fill="#000000" opacity="1" data-original="#000000" class=""></path><path d="M396.003 421a8 8 0 0 0 8-8v-31.527c10.841-2.308 19-11.954 19-23.473V24c0-13.233-10.767-24-24-24H165.648a8 8 0 0 0 0 16h233.354c4.411 0 8 3.589 8 8v334c0 4.411-3.589 8-8 8h-295c-11.87 0-22.719 4.433-31 11.717V47c0-17.094 13.906-31 31-31v307a8 8 0 0 0 16 0V8a8 8 0 0 0-8-8h-8c-25.916 0-47 21.084-47 47v366c0 25.916 21.084 47 47 47h22.678c0 13.287 12.562 22.704 25.204 19.308l16.118-4.33c17.295 4.646 17.865 5.028 21.374 5.028 10.686 0 19.948-8.649 19.948-19.944 0-.1-9.616-.062 201.678-.062a8 8 0 0 0 0-16H209.325v-23zm-202.678 39.062c0 2.577-2.484 4.483-5.054 3.793l-18.193-4.887a8.044 8.044 0 0 0-4.15 0l-18.192 4.887c-2.553.682-5.055-1.198-5.055-3.793V452a8 8 0 0 0-8-8h-30.678c-17.094 0-31-13.906-31-31s13.906-31 31-31h284v23H123.39a8 8 0 0 0 0 16h69.936v39.062z" fill="#000000" opacity="1" data-original="#000000" class=""></path></g></svg>