<svg xmlns="http://www.w3.org/2000/svg" version="1.1" xmlns:xlink="http://www.w3.org/1999/xlink" width="512" height="512" x="0" y="0" viewBox="0 0 480.005 480.005" style="enable-background:new 0 0 512 512" xml:space="preserve" class=""><g><path fill="#c0b3ff" d="M399.002 8h-295c-21.54 0-39 17.46-39 39 0 51.53-.119 379.661.01 365.603C64.804 434.301 83.026 452 104.773 452h283.23a8 8 0 0 0 8-8v-70h3c8.84 0 16-7.16 16-16V24c-.001-8.84-7.16-16-16.001-16z" opacity="1" data-original="#c0b3ff" class=""></path><path fill="#b49ef2" d="M415.002 140.594V358c0 8.837-7.163 16-16 16h-287V159.385c0-5.912 6.182-9.778 11.499-7.193 88.233 42.898 192.425 39.04 279.097-18.271 5.319-3.517 12.404.296 12.404 6.673zM112.002 8v366h-8c-21.54 0-39 17.46-39 39V47c0-21.54 17.46-39 39-39z" opacity="1" data-original="#b49ef2"></path><path fill="#a592ea" d="M112.002 154.27V374h-8c-21.54 0-39 17.46-39 39V162.475c0-2.259.961-4.407 2.625-5.935 6.944-6.375 16.207-10.269 26.375-10.269h10a7.998 7.998 0 0 1 8 7.999z" opacity="1" data-original="#a592ea"></path><path fill="#ffebd2" d="M396.002 374v70a8 8 0 0 1-8 8h-283.23c-21.869 0-40.181-17.896-39.762-39.761C65.418 391.051 82.717 374 104.002 374z" opacity="1" data-original="#ffebd2"></path><path fill="#ffd9ad" d="M396.002 374v6a8 8 0 0 1-8 8h-260c-25.266 0-41.882 22.714-38.587 44.686 1.165 7.768-8.26 12.51-13.675 6.82C52.179 414.746 69.976 374 104.002 374z" opacity="1" data-original="#ffd9ad"></path><path fill="#befa91" d="M201.322 413v47.06c0 7.86-7.5 13.57-15.13 11.52l-18.19-4.89-18.19 4.89c-7.63 2.05-15.13-3.66-15.13-11.52V413z" opacity="1" data-original="#befa91"></path><path fill="#daffbf" d="M155.831 465.177c1.06 2.222-.277 4.86-2.654 5.498l-3.365.904c-7.63 2.05-15.13-3.66-15.13-11.52V413h20v47.06c0 1.85.415 3.58 1.149 5.117z" opacity="1" data-original="#daffbf"></path><path fill="#eef7ff" d="M307.872 123.2c-58.54-23.58-114.99 3.5-137.09 52.35-35.51 78.49 34.89 171.06 64.79 145.58 11.29-9.61-3.34-38.97 6.45-46 6.24-4.48 15.75 4.87 29.59 9.35 105 33.99 129.951-123.52 36.26-161.28z" opacity="1" data-original="#eef7ff"></path><path fill="#cbe3fa" d="M271.612 284.48c-13.84-4.48-23.35-13.83-29.59-9.35-9.79 7.03 4.84 36.39-6.45 46-29.801 25.395-99.373-66.141-65.48-144.041a7.999 7.999 0 0 1 9.285-4.558c55.457 13.956 113.002 10.796 166.154-9.314 3.811-1.442 8.133.183 9.956 3.827 29.39 58.743-4.192 143.228-83.875 117.436z" opacity="1" data-original="#cbe3fa"></path><path d="M396.002 421a8 8 0 0 0 8-8v-31.528c10.841-2.307 19-11.954 19-23.472V24c0-13.233-10.767-24-24-24H165.647a8 8 0 0 0 0 16h233.355c4.411 0 8 3.589 8 8v334c0 4.411-3.589 8-8 8h-295c-11.87 0-22.719 4.432-31 11.717V47c0-17.093 13.907-31 31-31v307a8 8 0 0 0 16 0V8a8 8 0 0 0-8-8h-8c-25.916 0-47 21.084-47 47v366c0 25.916 21.084 47 47 47h22.677c0 13.29 12.564 22.701 25.204 19.307l16.119-4.329c17.216 4.623 17.837 5.027 21.375 5.027 10.687 0 19.947-8.649 19.947-19.944 0-.1-9.616-.061 201.677-.061a8 8 0 0 0 0-16H209.325v-23zm-202.677 39.061c0 2.591-2.5 4.479-5.054 3.793l-18.194-4.886a8.001 8.001 0 0 0-4.15 0l-18.194 4.886c-2.562.686-5.054-1.208-5.054-3.793V452a8 8 0 0 0-8-8h-30.677c-17.093 0-31-13.907-31-31s13.907-31 31-31h284v23H123.39a8 8 0 0 0 0 16h69.936v39.061z" fill="#000000" opacity="1" data-original="#000000"></path><path d="M354.002 70a8 8 0 0 0 0-16h-19.581a8 8 0 0 0 0 16zM287.067 70a8 8 0 0 0 0-16H174.002a8 8 0 0 0 0 16zM158.984 261.501c7.843 26.067 22.742 49.315 39.853 62.189 13.31 10.014 29.349 14.243 41.921 3.532 9.089-7.738 7.617-21.205 6.434-32.025-.463-4.229-1.218-11.134-.394-13.467a8 8 0 0 0 5.588-9.125 7.995 7.995 0 0 0-9.322-6.41 14.12 14.12 0 0 0-5.703 2.433c-8.503 6.103-7.213 17.9-6.075 28.31.691 6.315 1.734 15.86-.902 18.104-12.86 10.956-43.801-17.349-56.078-58.15-26.109-86.771 48.613-159.29 130.577-126.266 46.148 18.595 61.248 69.453 49.185 107.878-10.471 33.355-37.232 48.57-71.595 40.693a8 8 0 0 0-9.585 6.011 8 8 0 0 0 6.011 9.585c107.237 24.577 131.853-138.756 31.965-179.007-93.061-37.496-182.196 44.958-151.88 145.715z" fill="#000000" opacity="1" data-original="#000000"></path><circle cx="213.002" cy="217" r="16" fill="#000000" opacity="1" data-original="#000000"></circle><circle cx="246.002" cy="164" r="16" fill="#000000" opacity="1" data-original="#000000"></circle><circle cx="309.002" cy="183" r="16" fill="#000000" opacity="1" data-original="#000000"></circle><circle cx="309.002" cy="240" r="16" fill="#000000" opacity="1" data-original="#000000"></circle></g></svg>