<svg xmlns="http://www.w3.org/2000/svg" version="1.1" xmlns:xlink="http://www.w3.org/1999/xlink" width="512" height="512" x="0" y="0" viewBox="0 0 480.005 480.005" style="enable-background:new 0 0 512 512" xml:space="preserve" class=""><g><path fill="#c0b3ff" d="M399.002 8h-295c-21.54 0-39 17.46-39 39 0 51.53-.119 379.661.01 365.603C64.804 434.301 83.026 452 104.773 452h283.23a8 8 0 0 0 8-8v-70h3c8.84 0 16-7.16 16-16V24c-.001-8.84-7.16-16-16.001-16z" opacity="1" data-original="#c0b3ff"></path><path fill="#b49ef2" d="M415.002 140.594V358c0 8.837-7.163 16-16 16h-287V159.385c0-5.912 6.182-9.778 11.499-7.193 88.233 42.898 192.425 39.04 279.097-18.271 5.319-3.517 12.404.296 12.404 6.673zM112.002 8v366h-8c-21.54 0-39 17.46-39 39V47c0-21.54 17.46-39 39-39z" opacity="1" data-original="#b49ef2"></path><path fill="#a592ea" d="M112.002 154.27V374h-8c-21.54 0-39 17.46-39 39V162.475c0-2.259.961-4.407 2.625-5.935 6.944-6.375 16.207-10.269 26.375-10.269h10a7.998 7.998 0 0 1 8 7.999z" opacity="1" data-original="#a592ea"></path><path fill="#ffebd2" d="M396.002 374v70a8 8 0 0 1-8 8h-283.23c-21.869 0-40.181-17.896-39.762-39.761C65.418 391.051 82.717 374 104.002 374z" opacity="1" data-original="#ffebd2"></path><path fill="#ffd9ad" d="M396.002 374v6a8 8 0 0 1-8 8h-260c-25.266 0-41.882 22.714-38.587 44.686 1.165 7.768-8.26 12.51-13.675 6.82C52.179 414.746 69.976 374 104.002 374z" opacity="1" data-original="#ffd9ad"></path><path fill="#ff6d7a" d="M201.322 413v47.06c0 7.86-7.5 13.57-15.13 11.52l-18.19-4.89-18.19 4.89c-7.63 2.05-15.13-3.66-15.13-11.52V413z" opacity="1" data-original="#ff6d7a"></path><path fill="#ff8c95" d="M155.831 465.177c1.06 2.222-.277 4.86-2.654 5.498l-3.365.904c-7.63 2.05-15.13-3.66-15.13-11.52V413h20v47.06c0 1.85.415 3.58 1.149 5.117z" opacity="1" data-original="#ff8c95"></path><circle cx="264.002" cy="158" r="111" fill="#dfd9ff" opacity="1" data-original="#dfd9ff"></circle><path fill="#d0c7ff" d="M264.002 269c-55.82 0-102.016-41.206-109.829-94.857-.641-4.399 3.565-7.921 7.8-6.569 67.907 21.679 140.021 17.26 204.464-13.252 4.007-1.897 8.626 1.067 8.559 5.5C374.086 219.807 325.089 269 264.002 269z" opacity="1" data-original="#d0c7ff"></path><path fill="#c0b3ff" d="M328.792 124.33h-40.06l-12.37-38.08c-3.89-11.98-20.83-11.98-24.72 0l-12.37 38.08h-40.06c-12.59 0-17.83 16.12-7.64 23.52l32.41 23.54-12.38 38.09c-3.9 11.97 9.81 21.93 20 14.53l32.4-23.54 32.4 23.54c10.19 7.4 23.9-2.56 20-14.53l-12.38-38.09 32.41-23.54c10.191-7.4 4.95-23.52-7.64-23.52z" opacity="1" data-original="#c0b3ff"></path><path d="M334.421 309a8 8 0 0 0 0 16h19.581a8 8 0 0 0 0-16zM174.002 309a8 8 0 0 0 0 16h113.064a8 8 0 0 0 0-16zM293.46 42.676C218.334 23.538 145.002 80.418 145.002 158c0 65.617 53.383 119 119 119s119-53.383 119-119c0-33.095-13.261-63.835-37.338-86.559a8 8 0 0 0-10.983 11.637c20.842 19.668 32.32 46.276 32.32 74.922 0 56.794-46.206 103-103 103s-103-46.206-103-103c0-66.928 63.275-116.435 128.509-99.819a8 8 0 0 0 9.728-5.778 8 8 0 0 0-5.778-9.727z" fill="#000000" opacity="1" data-original="#000000"></path><path d="M341.131 154.322c16.445-11.947 8.016-37.99-12.344-37.99h-34.234l-10.579-32.559c-6.282-19.333-33.652-19.363-39.943 0l-10.579 32.559h-34.234c-20.327 0-28.816 26.023-12.344 37.99l27.696 20.123-10.579 32.559c-6.281 19.331 15.845 35.446 32.315 23.479l27.696-20.123 27.696 20.123c14.411 10.47 33.594-.558 33.383-17.103a8 8 0 1 0-15.998.204c.045 3.572-4.379 6.572-7.98 3.956l-23.49-17.067zm-81.883-65.604c1.014-3.118 3.663-3.455 4.755-3.455s3.741.337 4.755 3.455l8.973 27.614h-27.455zm-62.97 52.66c-2.652-1.927-2.153-4.551-1.816-5.59.338-1.039 1.477-3.455 4.756-3.455h29.036l-8.485 26.112zm67.725 49.205-7.661-5.566a7.999 7.999 0 0 0-11.174 1.77 7.998 7.998 0 0 0 1.77 11.174l3.455 2.51-23.49 17.067c-2.654 1.93-4.994.643-5.878 0-.884-.642-2.829-2.472-1.816-5.59l25.869-79.615h37.852l11.698 36zm35.749-58.25h29.035c3.279 0 4.418 2.417 4.756 3.455.337 1.039.836 3.663-1.816 5.59l-23.49 17.067z" fill="#000000" opacity="1" data-original="#000000"></path><path d="M396.002 421a8 8 0 0 0 8-8v-31.528c10.841-2.307 19-11.954 19-23.472V24c0-13.233-10.767-24-24-24H165.648a8 8 0 0 0 0 16h233.354c4.411 0 8 3.589 8 8v334c0 4.411-3.589 8-8 8h-295c-11.87 0-22.719 4.432-31 11.717V47c0-17.093 13.906-31 31-31v307a8 8 0 0 0 16 0V8a8 8 0 0 0-8-8h-8c-25.916 0-47 21.084-47 47v366c0 25.916 21.084 47 47 47h22.678c0 13.29 12.564 22.703 25.204 19.307l16.118-4.329c17.178 4.613 17.834 5.027 21.375 5.027 10.686 0 19.947-8.649 19.947-19.944 0-.1-9.616-.061 201.678-.061a8 8 0 0 0 0-16H209.325v-23zm-202.677 39.061c0 2.59-2.497 4.479-5.054 3.793l-18.193-4.886a8.001 8.001 0 0 0-4.15 0l-18.193 4.886c-2.552.685-5.054-1.201-5.054-3.793V452a8 8 0 0 0-8-8h-30.678c-17.094 0-31-13.907-31-31s13.906-31 31-31h284v23H123.389a8 8 0 0 0 0 16h69.936z" fill="#000000" opacity="1" data-original="#000000"></path></g></svg>