<svg xmlns="http://www.w3.org/2000/svg" version="1.1" xmlns:xlink="http://www.w3.org/1999/xlink" width="512" height="512" x="0" y="0" viewBox="0 0 480.006 480.006" style="enable-background:new 0 0 512 512" xml:space="preserve" class=""><g><path fill="#c0b3ff" d="M399.003 8h-295c-21.54 0-39 17.46-39 39 0 51.53-.119 379.661.01 365.603C64.804 434.301 83.026 452 104.773 452h283.23a8 8 0 0 0 8-8v-70h3c8.84 0 16-7.16 16-16V24c0-8.84-7.16-16-16-16z" opacity="1" data-original="#c0b3ff"></path><path fill="#b49ef2" d="M415.003 140.594V358c0 8.837-7.163 16-16 16h-287V159.385c0-5.912 6.182-9.778 11.499-7.193 88.233 42.898 192.425 39.04 279.097-18.271 5.319-3.517 12.404.296 12.404 6.673z" opacity="1" data-original="#b49ef2"></path><path fill="#b49ef2" d="M112.003 8v366h-8c-21.54 0-39 17.46-39 39V47c0-21.54 17.46-39 39-39z" opacity="1" data-original="#b49ef2"></path><path fill="#a592ea" d="M112.003 154.27V374h-8c-21.54 0-39 17.46-39 39V162.475c0-2.259.961-4.407 2.625-5.935 6.944-6.375 16.207-10.269 26.375-10.269h10a7.999 7.999 0 0 1 8 7.999z" opacity="1" data-original="#a592ea"></path><path fill="#ffebd2" d="M396.003 374v70a8 8 0 0 1-8 8h-283.23c-21.869 0-40.181-17.896-39.762-39.761C65.418 391.051 82.718 374 104.003 374z" opacity="1" data-original="#ffebd2"></path><path fill="#ffd9ad" d="M396.003 374v6a8 8 0 0 1-8 8h-260c-25.266 0-41.882 22.714-38.587 44.686 1.165 7.768-8.26 12.51-13.675 6.82C52.179 414.746 69.976 374 104.003 374z" opacity="1" data-original="#ffd9ad"></path><path fill="#585966" stroke="#000" stroke-miterlimit="10" d="M201.323 413v47.06c0 7.86-7.5 13.57-15.13 11.52l-18.19-4.89-18.19 4.89c-7.63 2.05-15.13-3.66-15.13-11.52V413z" opacity="1" data-original="#585966"></path><path fill="#6e6f80" d="M155.832 465.177c1.06 2.222-.277 4.86-2.654 5.498l-3.365.904c-7.63 2.05-15.13-3.66-15.13-11.52V413h20v47.06c0 1.85.415 3.58 1.149 5.117z" opacity="1" data-original="#6e6f80"></path><path fill="#585966" d="m228.843 222.55-42.57 46.48c-5.22 5.7-14.13 5.9-19.59.43l-9.93-9.92c-5.46-5.46-5.27-14.38.43-19.59l46.49-42.58z" opacity="1" data-original="#585966"></path><path fill="#eef7ff" d="m197.543 191.24 102.89-135.87a13.58 13.58 0 0 1 12.53-5.26l45.6 5.8c6.13.78 10.96 5.61 11.74 11.74l5.81 45.61c.61 4.81-1.4 9.59-5.27 12.52l-135.87 102.89z" opacity="1" data-original="#eef7ff"></path><path fill="#cbe3fa" d="m286.451 189.688-51.478 38.982-37.43-37.43 7.815-10.315a6.019 6.019 0 0 1 5.61-2.315 276.85 276.85 0 0 0 71.079.348c6.111-.763 9.314 7.012 4.404 10.73z" opacity="1" data-original="#cbe3fa"></path><path d="M334.422 315a8 8 0 0 0 0 16h19.581a8 8 0 0 0 0-16zM174.003 315a8 8 0 0 0 0 16h113.064a8 8 0 0 0 0-16zM161.022 275.121c8.778 8.778 22.934 8.284 31.148-.684l36.928-40.324 17.464 17.464a7.976 7.976 0 0 0 5.657 2.343c7.065 0 10.711-8.602 5.657-13.657l-30.304-30.305 89.042-89.042a8 8 0 0 0-11.314-11.314l-89.042 89.042-8.128-8.128 98.685-130.311a5.587 5.587 0 0 1 5.138-2.161l45.602 5.805a5.561 5.561 0 0 1 4.815 4.814l5.804 45.604a5.575 5.575 0 0 1-2.16 5.135l-94.536 71.593a8.002 8.002 0 0 0-1.548 11.208 8.003 8.003 0 0 0 11.208 1.548l94.535-71.593a21.61 21.61 0 0 0 8.372-19.911l-5.804-45.603a21.557 21.557 0 0 0-18.667-18.666l-45.603-5.806a21.623 21.623 0 0 0-19.911 8.372l-97.352 128.55-10.754-10.754a8 8 0 0 0-11.314 11.314l43.135 43.135-37.402 40.842c-2.19 2.39-5.852 2.363-8.035.176l-9.928-9.927a5.557 5.557 0 0 1 .178-8.034l21.776-19.943a8 8 0 0 0-10.807-11.799l-21.775 19.942c-9.049 8.285-9.394 22.44-.686 31.148z" fill="#000000" opacity="1" data-original="#000000"></path><path d="M396.003 421a8 8 0 0 0 8-8v-31.528c10.841-2.307 19-11.953 19-23.472V24c0-13.233-10.767-24-24-24H165.648a8 8 0 0 0 0 16h233.354c4.411 0 8 3.589 8 8v334c0 4.411-3.589 8-8 8h-295c-11.87 0-22.719 4.432-31 11.717V47c0-17.094 13.906-31 31-31v307a8 8 0 0 0 16 0V8a8 8 0 0 0-8-8h-8c-25.916 0-47 21.084-47 47v366c0 25.916 21.084 47 47 47h22.678c0 13.289 12.561 22.698 25.204 19.308l16.118-4.33c17.295 4.646 17.865 5.028 21.374 5.028 10.686 0 19.948-8.649 19.948-19.944 0-.1-9.616-.062 201.678-.062a8 8 0 0 0 0-16H209.325v-23zm-202.678 39.062c0 2.566-2.475 4.486-5.054 3.793l-18.193-4.887a8.044 8.044 0 0 0-4.15 0l-18.192 4.887c-2.57.688-5.055-1.214-5.055-3.793V452a8 8 0 0 0-8-8h-30.678c-17.094 0-31-13.906-31-31s13.906-31 31-31h284v23H123.39a8 8 0 0 0 0 16h69.936v39.062z" fill="#000000" opacity="1" data-original="#000000"></path></g></svg>