<svg xmlns="http://www.w3.org/2000/svg" version="1.1" xmlns:xlink="http://www.w3.org/1999/xlink" width="512" height="512" x="0" y="0" viewBox="0 0 480.005 480.005" style="enable-background:new 0 0 512 512" xml:space="preserve" class=""><g><path fill="#daffbf" d="M399.002 8h-295c-21.54 0-39 17.46-39 39 0 51.53-.119 379.661.01 365.603C64.804 434.301 83.026 452 104.773 452h283.23a8 8 0 0 0 8-8v-70h3c8.84 0 16-7.16 16-16V24c-.001-8.84-7.16-16-16.001-16z" opacity="1" data-original="#daffbf"></path><path fill="#befa91" d="M415.002 140.594V358c0 8.837-7.163 16-16 16h-287V159.385c0-5.912 6.182-9.778 11.499-7.193 88.233 42.898 192.425 39.04 279.097-18.271 5.319-3.517 12.404.296 12.404 6.673zM112.002 8v366h-8c-21.54 0-39 17.46-39 39V47c0-21.54 17.46-39 39-39z" opacity="1" data-original="#befa91"></path><path fill="#9ceb63" d="M112.002 154.27V374h-8c-21.54 0-39 17.46-39 39V162.475c0-2.259.961-4.407 2.625-5.935 6.944-6.375 16.207-10.269 26.375-10.269h10a7.998 7.998 0 0 1 8 7.999z" opacity="1" data-original="#9ceb63"></path><path fill="#ffebd2" d="M396.002 374v70a8 8 0 0 1-8 8h-283.23c-21.869 0-40.181-17.896-39.762-39.761C65.418 391.051 82.717 374 104.002 374z" opacity="1" data-original="#ffebd2"></path><path fill="#ffd9ad" d="M396.002 374v6a8 8 0 0 1-8 8h-260c-25.266 0-41.882 22.714-38.587 44.686 1.165 7.768-8.26 12.51-13.675 6.82C52.179 414.746 69.976 374 104.002 374z" opacity="1" data-original="#ffd9ad"></path><path fill="#ff6d7a" d="M201.322 413v47.06c0 7.86-7.5 13.57-15.13 11.52l-18.19-4.89-18.19 4.89c-7.63 2.05-15.13-3.66-15.13-11.52V413z" opacity="1" data-original="#ff6d7a"></path><path fill="#ff8c95" d="M155.831 465.177c1.06 2.222-.277 4.86-2.654 5.498l-3.365.904c-7.63 2.05-15.13-3.66-15.13-11.52V413h20v47.06c0 1.85.415 3.58 1.149 5.117z" opacity="1" data-original="#ff8c95"></path><circle cx="263.002" cy="158" r="109" fill="#eef7ff" opacity="1" data-original="#eef7ff"></circle><path fill="#cbe3fa" d="M263.002 267c-53.414 0-97.859-38.422-107.187-89.134-1.081-5.876 4.526-10.747 10.245-9.014 63.839 19.34 132.137 15.985 194.521-11.84 5.508-2.457 11.589 1.859 11.216 7.878C368.284 221.465 321.269 267 263.002 267z" opacity="1" data-original="#cbe3fa"></path><path d="M335.928 66.502C315.021 49.818 289.803 41 263.002 41c-64.514 0-117 52.486-117 117s52.486 117 117 117 117-52.486 117-117c0-18.654-4.262-36.486-12.667-53.001a8 8 0 0 0-10.759-3.501 8 8 0 0 0-3.501 10.758c7.251 14.246 10.927 29.637 10.927 45.745 0 55.691-45.309 101-101 101s-101-45.309-101-101 45.309-101 101-101c23.137 0 44.902 7.61 62.945 22.008a8 8 0 0 0 11.243-1.263 8 8 0 0 0-1.262-11.244z" fill="#000000" opacity="1" data-original="#000000" class=""></path><path d="M285.844 195.825a8 8 0 0 0 11.217 1.479l19.674-15.092c2.567 2.647 5.181 5.678 7.854 9.163a8 8 0 0 0 12.696-9.738c-5.501-7.171-12.3-13.937-14.909-16.094-16.961-14.694-33.012-16.837-47.917-16.33 5.607-18.382 7.468-39.741-15.04-69.081a8.001 8.001 0 0 0-12.696 9.738c20.203 26.337 16.697 42.827 10.484 60.576-12.046.901-23.304.844-35.17-6.285l19.105-14.656a8 8 0 0 0 1.479-11.216 8.001 8.001 0 0 0-11.217-1.479l-22.134 16.98c-2.568-2.647-5.181-5.678-7.854-9.163a8 8 0 0 0-12.696 9.738c16.846 21.96 35.492 33.353 62.827 32.423-5.607 18.383-7.468 39.741 15.04 69.081a8 8 0 0 0 12.696-9.738c-20.203-26.337-16.697-42.827-10.484-60.576 12.046-.901 23.304-.844 35.169 6.285l-16.645 12.768a8 8 0 0 0-1.479 11.217zM334.421 305a8 8 0 0 0 0 16h19.581a8 8 0 0 0 0-16zM174.002 305a8 8 0 0 0 0 16h113.064a8 8 0 0 0 0-16z" fill="#000000" opacity="1" data-original="#000000" class=""></path><path d="M396.002 421a8 8 0 0 0 8-8v-31.528c10.841-2.307 19-11.954 19-23.472V24c0-13.233-10.767-24-24-24H165.648a8 8 0 0 0 0 16h233.354c4.411 0 8 3.589 8 8v334c0 4.411-3.589 8-8 8h-295c-11.87 0-22.719 4.432-31 11.717V47c0-17.093 13.906-31 31-31v307a8 8 0 0 0 16 0V8a8 8 0 0 0-8-8h-8c-25.916 0-47 21.084-47 47v366c0 25.916 21.084 47 47 47h22.678c0 13.29 12.563 22.702 25.204 19.307l16.118-4.329c17.178 4.613 17.834 5.027 21.375 5.027 10.686 0 19.947-8.649 19.947-19.944 0-.1-9.616-.061 201.678-.061a8 8 0 0 0 0-16H209.325v-23zm-202.677 39.061c0 2.585-2.491 4.48-5.054 3.793l-18.193-4.886a8.001 8.001 0 0 0-4.15 0l-18.193 4.886c-2.57.69-5.054-1.219-5.054-3.793V452a8 8 0 0 0-8-8h-30.678c-17.094 0-31-13.907-31-31s13.906-31 31-31h284v23H123.389a8 8 0 0 0 0 16h69.936z" fill="#000000" opacity="1" data-original="#000000" class=""></path></g></svg>