<svg xmlns="http://www.w3.org/2000/svg" version="1.1" xmlns:xlink="http://www.w3.org/1999/xlink" width="512" height="512" x="0" y="0" viewBox="0 0 480.005 480.005" style="enable-background:new 0 0 512 512" xml:space="preserve" class=""><g><path fill="#9cbcff" d="M399.002 8h-295c-21.54 0-39 17.46-39 39 0 51.53-.119 379.661.01 365.603C64.804 434.301 83.026 452 104.773 452h283.23a8 8 0 0 0 8-8v-70h3c8.84 0 16-7.16 16-16V24c-.001-8.84-7.16-16-16.001-16z" opacity="1" data-original="#9cbcff" class=""></path><path fill="#80aaff" d="M415.002 140.594V358c0 8.837-7.163 16-16 16h-287V159.385c0-5.912 6.182-9.778 11.499-7.193 88.233 42.898 192.425 39.04 279.097-18.271 5.319-3.517 12.404.296 12.404 6.673zM112.002 8v366h-8c-21.54 0-39 17.46-39 39V47c0-21.54 17.46-39 39-39z" opacity="1" data-original="#80aaff" class=""></path><path fill="#719efa" d="M112.002 154.27V374h-8c-21.54 0-39 17.46-39 39V162.475c0-2.259.961-4.407 2.625-5.935 6.944-6.375 16.207-10.269 26.375-10.269h10a7.998 7.998 0 0 1 8 7.999z" opacity="1" data-original="#719efa"></path><path fill="#ffebd2" d="M396.002 374v70a8 8 0 0 1-8 8h-283.23c-21.869 0-40.181-17.896-39.762-39.761C65.418 391.051 82.717 374 104.002 374z" opacity="1" data-original="#ffebd2"></path><path fill="#ffd9ad" d="M396.002 374v6a8 8 0 0 1-8 8h-260c-25.266 0-41.882 22.714-38.587 44.686 1.165 7.768-8.26 12.51-13.675 6.82C52.179 414.746 69.976 374 104.002 374z" opacity="1" data-original="#ffd9ad"></path><path fill="#cbe3fa" d="M201.322 413v47.06c0 7.86-7.5 13.57-15.13 11.52l-18.19-4.89-18.19 4.89c-7.63 2.05-15.13-3.66-15.13-11.52V413z" opacity="1" data-original="#cbe3fa"></path><path fill="#eef7ff" d="M155.831 465.177c1.06 2.222-.277 4.86-2.654 5.498l-3.365.904c-7.63 2.05-15.13-3.66-15.13-11.52V413h20v47.06c0 1.85.415 3.58 1.149 5.117z" opacity="1" data-original="#eef7ff"></path><circle cx="264.002" cy="167" r="27" fill="#eef7ff" opacity="1" data-original="#eef7ff"></circle><path d="M334.421 315a8 8 0 0 0 0 16h19.581a8 8 0 0 0 0-16zM174.002 315a8 8 0 0 0 0 16h113.064a8 8 0 0 0 0-16zM283.002 167c0 10.477-8.523 19-19 19s-19-8.523-19-19 8.523-19 19-19a8 8 0 0 0 0-16c-19.299 0-35 15.701-35 35s15.701 35 35 35 35-15.701 35-35a8 8 0 0 0-16 0z" fill="#000000" opacity="1" data-original="#000000"></path><path d="M198.91 204.523c1.928 12.049 4.769 23.292 8.381 33.461-27.463.329-47.892-10.908-41.469-37.766a8 8 0 1 0-15.561-3.722c-7.726 32.305 12.635 60.549 63.652 57.222 34.652 69.952 99.977 45.799 115.181-49.195 9.305-7.577 17.619-15.63 24.708-23.939 11.179 18.82 15.438 40.777-3.688 51.429a8 8 0 0 0 7.783 13.978c6.988-3.891 12.401-9.103 16.089-15.492 11.5-19.917 3.038-44.222-9.854-63.5 33.026-49.386 10.202-90.16-48.925-86.802-17.245.977-35.191 5.586-51.206 11.688-11.234-4.28-22.384-7.46-33.142-9.448 12.47-22.234 31.379-35.474 51.112-19.16 3.406 2.815 8.448 2.336 11.264-1.068a8 8 0 0 0-1.068-11.263c-23.254-19.226-56.164-15.256-78.254 29.335-77.663-5.064-89.991 63.177-15.003 124.242zm-15.191-37.517c3.781-4.698 8.026-9.338 12.67-13.867a248.882 248.882 0 0 0 .002 27.762c-4.646-4.533-8.887-9.179-12.672-13.895zm130.434 28.948c-15.172 11.605-32.48 21.6-50.117 28.941-18.17-7.536-35.347-17.592-50.184-28.941-2.464-18.941-2.467-38.928-.005-57.873 15.578-11.943 32.873-21.801 50.156-28.99 17.634 7.335 34.946 17.328 50.122 28.932 2.563 19.543 2.433 39.444.028 57.931zm-71.881 36.54c-6.264 1.762-12.424 3.116-18.414 4.038-2.195-5.646-4.102-11.652-5.707-17.954 8.344 5.468 15.876 9.768 24.121 13.916zM264.002 278c-11.759 0-23.684-9.575-33.142-26.438 10.766-1.989 21.926-5.173 33.168-9.458 11.219 4.267 22.383 7.455 33.12 9.451C287.69 268.422 275.763 278 264.002 278zm40.148-41.476c-5.967-.927-12.116-2.285-18.368-4.045a238.668 238.668 0 0 0 24.072-13.901c-1.604 6.299-3.51 12.303-5.704 17.946zm27.464-55.622c.546-9.782.498-18.71-.026-27.83 4.658 4.544 8.91 9.201 12.704 13.928-3.788 4.718-8.03 9.366-12.678 13.902zm28.517-69.402c5.879 10.182 3.543 25.297-6.329 41.916-7.105-8.328-15.441-16.399-24.771-23.992-1.914-11.849-4.735-23.111-8.375-33.407 19.339-.241 33.595 5.298 39.475 15.483zm-55.992-14.031c2.181 5.631 4.079 11.635 5.68 17.93a238.846 238.846 0 0 0-24.074-13.896c6.257-1.76 12.41-3.112 18.394-4.034zm-85.991 17.965c1.606-6.306 3.513-12.317 5.71-17.966 5.987.922 12.142 2.274 18.403 4.035-8.654 4.364-16.156 8.705-24.113 13.931zm-50.273-3.934c5.874-10.175 20.105-15.714 39.416-15.483-3.614 10.177-6.456 21.428-8.385 33.487-9.287 7.572-17.614 15.633-24.7 23.92-9.875-16.622-12.212-31.741-6.331-41.924z" fill="#000000" opacity="1" data-original="#000000"></path><path d="M396.002 421a8 8 0 0 0 8-8v-31.528c10.841-2.307 19-11.954 19-23.472V24c0-13.233-10.767-24-24-24H165.648a8 8 0 0 0 0 16h233.354c4.411 0 8 3.589 8 8v334c0 4.411-3.589 8-8 8h-295c-11.87 0-22.719 4.432-31 11.717V47c0-17.093 13.906-31 31-31v307a8 8 0 0 0 16 0V8a8 8 0 0 0-8-8h-8c-25.916 0-47 21.084-47 47v366c0 25.916 21.084 47 47 47h22.678c0 13.29 12.564 22.703 25.204 19.307l16.118-4.329c17.178 4.613 17.834 5.027 21.375 5.027 10.686 0 19.947-8.649 19.947-19.944 0-.1-9.616-.061 201.678-.061a8 8 0 0 0 0-16H209.325v-23zm-202.677 39.061c0 2.584-2.491 4.481-5.054 3.793l-18.193-4.886a8.001 8.001 0 0 0-4.15 0l-18.193 4.886c-2.563.688-5.054-1.21-5.054-3.793V452a8 8 0 0 0-8-8h-30.678c-17.094 0-31-13.907-31-31s13.906-31 31-31h284v23H123.389a8 8 0 0 0 0 16h69.936z" fill="#000000" opacity="1" data-original="#000000"></path></g></svg>