<svg xmlns="http://www.w3.org/2000/svg" version="1.1" xmlns:xlink="http://www.w3.org/1999/xlink" width="512" height="512" x="0" y="0" viewBox="0 0 480.006 480.006" style="enable-background:new 0 0 512 512" xml:space="preserve" class=""><g><path fill="#fff8d6" d="M399.003 8h-295c-21.54 0-39 17.46-39 39 0 51.53-.119 379.661.01 365.603C64.804 434.301 83.026 452 104.773 452h283.23a8 8 0 0 0 8-8v-70h3c8.84 0 16-7.16 16-16V24c0-8.84-7.16-16-16-16z" opacity="1" data-original="#fff8d6"></path><path fill="#fff0a6" d="M415.003 140.594V358c0 8.837-7.163 16-16 16h-287V159.385c0-5.912 6.182-9.778 11.499-7.193 88.233 42.898 192.425 39.04 279.097-18.271 5.319-3.517 12.404.296 12.404 6.673z" opacity="1" data-original="#fff0a6"></path><path fill="#fff0a6" d="M112.003 8v366h-8c-21.54 0-39 17.46-39 39V47c0-21.54 17.46-39 39-39z" opacity="1" data-original="#fff0a6"></path><path fill="#ffe773" d="M112.003 154.27V374h-8c-21.54 0-39 17.46-39 39V162.475c0-2.259.961-4.407 2.625-5.935 6.944-6.375 16.207-10.269 26.375-10.269h10a7.999 7.999 0 0 1 8 7.999z" opacity="1" data-original="#ffe773"></path><path fill="#ffebd2" d="M396.003 374v70a8 8 0 0 1-8 8h-283.23c-21.869 0-40.181-17.896-39.762-39.761C65.418 391.051 82.718 374 104.003 374z" opacity="1" data-original="#ffebd2"></path><path fill="#ffd9ad" d="M396.003 374v6a8 8 0 0 1-8 8h-260c-25.266 0-41.882 22.714-38.587 44.686 1.165 7.768-8.26 12.51-13.675 6.82C52.179 414.746 69.976 374 104.003 374z" opacity="1" data-original="#ffd9ad"></path><path fill="#befa91" d="M201.323 413v47.06c0 7.86-7.5 13.57-15.13 11.52l-18.19-4.89-18.19 4.89c-7.63 2.05-15.13-3.66-15.13-11.52V413z" opacity="1" data-original="#befa91"></path><path fill="#daffbf" d="M155.832 465.177c1.06 2.222-.277 4.86-2.654 5.498l-3.365.904c-7.63 2.05-15.13-3.66-15.13-11.52V413h20v47.06c0 1.85.415 3.58 1.149 5.117z" opacity="1" data-original="#daffbf"></path><path fill="#cbe3fa" d="M361.483 236.22c12.49 12.5 12.49 32.76 0 45.26-53.75 53.75-141.21 53.75-194.96 0-12.49-12.5-12.49-32.76 0-45.26 12.5-12.49 32.76-12.49 45.26 0 28.79 28.8 75.65 28.8 104.44 0 12.5-12.49 32.76-12.49 45.26 0z" opacity="1" data-original="#cbe3fa"></path><circle cx="264.003" cy="184" r="33" fill="#ff8c95" opacity="1" data-original="#ff8c95"></circle><path fill="#ff6d7a" d="M264.003 217c-16.212 0-29.475-11.634-32.404-26.655-.966-4.956 3.013-9.542 8.06-9.392 16.473.49 32.618-.502 48.143-2.775 5.074-.743 9.525 3.46 9.099 8.57C295.522 203.28 281.727 217 264.003 217z" opacity="1" data-original="#ff6d7a"></path><path fill="#ffe773" d="M200.616 89.642a82.306 82.306 0 0 0 21.742 21.746c4.672 3.18 4.672 10.045 0 13.225a82.32 82.32 0 0 0-21.742 21.746c-3.18 4.673-10.046 4.673-13.226 0a82.306 82.306 0 0 0-21.742-21.746c-4.672-3.18-4.672-10.045 0-13.225a82.32 82.32 0 0 0 21.742-21.746c3.18-4.673 10.046-4.673 13.226 0zM340.616 89.642a82.306 82.306 0 0 0 21.742 21.746c4.672 3.18 4.672 10.045 0 13.225a82.32 82.32 0 0 0-21.742 21.746c-3.18 4.673-10.046 4.673-13.226 0a82.306 82.306 0 0 0-21.742-21.746c-4.672-3.18-4.672-10.045 0-13.225a82.32 82.32 0 0 0 21.742-21.746c3.18-4.673 10.046-4.673 13.226 0z" opacity="1" data-original="#ffe773"></path><path d="M367.137 241.878a8 8 0 0 0 0-11.313c-15.596-15.594-40.972-15.595-56.569.001-25.691 25.692-67.436 25.694-93.129-.001-15.596-15.594-40.972-15.594-56.569 0-15.595 15.597-15.595 40.974 0 56.57 56.867 56.866 149.397 56.869 206.267 0a7.999 7.999 0 0 0 0-11.314 8.003 8.003 0 0 0-11.313 0c-50.629 50.632-133.009 50.63-183.64 0-9.357-9.357-9.357-24.584 0-33.941 9.357-9.358 24.584-9.357 33.941-.001 31.941 31.945 83.811 31.95 115.757.001 9.357-9.357 24.584-9.357 33.941 0a8.002 8.002 0 0 0 11.314-.002z" fill="#000000" opacity="1" data-original="#000000"></path><path d="M333.195 253.192c-38.153 38.154-100.231 38.154-138.385 0a8.001 8.001 0 0 0-11.313 0 7.999 7.999 0 0 0 0 11.314c44.389 44.389 116.62 44.392 161.012 0a7.999 7.999 0 0 0 0-11.314 8.003 8.003 0 0 0-11.314 0zM223.003 184c0 22.607 18.393 41 41 41 12.554 0 24.246-5.636 32.078-15.463a8 8 0 0 0-1.271-11.242 7.997 7.997 0 0 0-11.242 1.27c-4.778 5.996-11.91 9.436-19.565 9.436-13.785 0-25-11.215-25-25s11.215-25 25-25c10.687 0 20.194 6.786 23.657 16.888a7.999 7.999 0 0 0 10.162 4.973 8 8 0 0 0 4.974-10.162c-5.68-16.569-21.27-27.7-38.793-27.7-22.607 0-41 18.393-41 41zM150.629 125.254a74.615 74.615 0 0 1 36.121 36.122c2.863 6.151 11.639 6.157 14.506 0a74.75 74.75 0 0 1 9.373-15.122 8 8 0 0 0-1.253-11.244c-3.449-2.76-8.484-2.198-11.244 1.252a91.159 91.159 0 0 0-4.133 5.6 90.765 90.765 0 0 0-23.861-23.861 90.747 90.747 0 0 0 23.866-23.867 90.636 90.636 0 0 0 36.626 31.121 7.997 7.997 0 0 0 10.627-3.88 8 8 0 0 0-3.879-10.628 74.62 74.62 0 0 1-36.121-36.122c-2.863-6.151-11.639-6.157-14.506 0a74.62 74.62 0 0 1-36.121 36.122c-6.153 2.861-6.162 11.641-.001 14.507zM341.256 81.376a8.001 8.001 0 0 0-3.877-10.629 7.997 7.997 0 0 0-10.628 3.877 74.62 74.62 0 0 1-36.121 36.122c-6.152 2.862-6.161 11.642 0 14.508a74.615 74.615 0 0 1 36.121 36.122c2.863 6.151 11.639 6.157 14.506 0a74.615 74.615 0 0 1 36.121-36.122c6.152-2.862 6.161-11.642 0-14.508a74.445 74.445 0 0 1-17.874-11.683 8 8 0 0 0-10.586 11.998 90.32 90.32 0 0 0 8.943 6.943 90.761 90.761 0 0 0-23.858 23.863 90.766 90.766 0 0 0-23.866-23.868 90.664 90.664 0 0 0 31.119-36.623z" fill="#000000" opacity="1" data-original="#000000"></path><path d="M396.003 421a8 8 0 0 0 8-8v-31.527c10.841-2.308 19-11.954 19-23.473V24c0-13.233-10.767-24-24-24H165.648a8 8 0 0 0 0 16h233.355c4.411 0 8 3.589 8 8v334c0 4.411-3.589 8-8 8h-295c-11.87 0-22.719 4.433-31 11.717V47c0-17.094 13.907-31 31-31v307a8 8 0 0 0 16 0V8a8 8 0 0 0-8-8h-8c-25.916 0-47 21.084-47 47v366c0 25.916 21.084 47 47 47h22.677c0 13.27 12.538 22.704 25.204 19.308l16.119-4.33c17.218 4.625 17.84 5.028 21.375 5.028 10.686 0 19.948-8.649 19.948-19.944 0-.1-9.616-.062 201.677-.062a8 8 0 0 0 0-16H209.326v-23zm-202.677 39.062c0 2.59-2.499 4.48-5.054 3.793l-18.194-4.887a8.001 8.001 0 0 0-4.15 0l-18.193 4.887c-2.573.693-5.054-1.222-5.054-3.793V452a8 8 0 0 0-8-8h-30.677c-17.093 0-31-13.906-31-31s13.907-31 31-31h284v23H123.39a8 8 0 0 0 0 16h69.936z" fill="#000000" opacity="1" data-original="#000000"></path></g></svg>