<svg xmlns="http://www.w3.org/2000/svg" version="1.1" xmlns:xlink="http://www.w3.org/1999/xlink" width="512" height="512" x="0" y="0" viewBox="0 0 480.006 480.006" style="enable-background:new 0 0 512 512" xml:space="preserve" class=""><g><path fill="#eef7ff" d="M399.003 8h-295c-21.54 0-39 17.46-39 39 0 51.53-.119 379.661.01 365.603C64.804 434.301 83.026 452 104.773 452h283.23a8 8 0 0 0 8-8v-70h3c8.84 0 16-7.16 16-16V24c0-8.84-7.16-16-16-16z" opacity="1" data-original="#eef7ff"></path><path fill="#cbe3fa" d="M415.003 140.594V358c0 8.837-7.163 16-16 16h-287V159.385c0-5.912 6.182-9.778 11.499-7.193 88.233 42.898 192.425 39.04 279.097-18.271 5.319-3.517 12.404.296 12.404 6.673z" opacity="1" data-original="#cbe3fa"></path><path fill="#cbe3fa" d="M112.003 8v366h-8c-21.54 0-39 17.46-39 39V47c0-21.54 17.46-39 39-39z" opacity="1" data-original="#cbe3fa"></path><path fill="#9ec7f0" d="M112.003 154.27V374h-8c-21.54 0-39 17.46-39 39V162.475c0-2.259.961-4.407 2.625-5.935 6.944-6.375 16.207-10.269 26.375-10.269h10a7.999 7.999 0 0 1 8 7.999z" opacity="1" data-original="#9ec7f0"></path><path fill="#ffebd2" d="M396.003 374v70a8 8 0 0 1-8 8h-283.23c-21.869 0-40.181-17.896-39.762-39.761C65.418 391.051 82.718 374 104.003 374z" opacity="1" data-original="#ffebd2"></path><path fill="#ffd9ad" d="M396.003 374v6a8 8 0 0 1-8 8h-260c-25.266 0-41.882 22.714-38.587 44.686 1.165 7.768-8.26 12.51-13.675 6.82C52.179 414.746 69.976 374 104.003 374z" opacity="1" data-original="#ffd9ad"></path><path fill="#fff0a6" d="M201.323 413v47.06c0 7.86-7.5 13.57-15.13 11.52l-18.19-4.89-18.19 4.89c-7.63 2.05-15.13-3.66-15.13-11.52V413z" opacity="1" data-original="#fff0a6"></path><path fill="#fff8d6" d="M155.832 465.177c1.06 2.222-.277 4.86-2.654 5.498l-3.365.904c-7.63 2.05-15.13-3.66-15.13-11.52V413h20v47.06c0 1.85.415 3.58 1.149 5.117z" opacity="1" data-original="#fff8d6"></path><path fill="#cbe3fa" d="M358.943 109.9c.89 16.55-8.81 30.94-22.94 37.02V219h-144v-72.08c-14.13-6.08-23.83-20.47-22.94-37.02 1.55-28.85 34.07-45.65 58.54-29.82 4.7-15.66 19.21-27.08 36.4-27.08s31.7 11.42 36.4 27.08c24.55-15.88 57 1.06 58.54 29.82z" opacity="1" data-original="#cbe3fa"></path><path fill="#b5d5f5" d="M336.003 177.532V219h-144v-33.964c0-4.93 4.421-8.717 9.281-7.894 41.257 6.986 83.687 4.726 124.485-7.283 5.114-1.505 10.234 2.342 10.234 7.673z" opacity="1" data-original="#b5d5f5"></path><path fill="#9ec7f0" d="M336.003 219v23c0 8.84-7.16 16-16 16h-112c-8.84 0-16-7.16-16-16v-23z" opacity="1" data-original="#9ec7f0"></path><path d="M334.422 313a8 8 0 0 0 0 16h19.581a8 8 0 0 0 0-16zM174.003 313a8 8 0 0 0 0 16h113.064a8 8 0 0 0 0-16zM366.935 109.477c-1.703-31.736-34.223-51.459-62.512-40.409C296.482 54.543 280.965 45 264.003 45s-32.48 9.544-40.421 24.068c-28.168-10.996-60.801 8.555-62.511 40.408-.933 17.382 8.123 33.779 22.932 42.36V219a8 8 0 0 0 8 8h102.936a8 8 0 0 0 0-16h-94.936v-64.08a8 8 0 0 0-4.839-7.349c-11.509-4.951-18.79-16.7-18.117-29.237 1.226-22.816 26.973-35.984 46.213-23.54 4.476 2.894 10.479.677 12.007-4.421C239.04 69.789 250.855 61 264.003 61s24.964 8.789 28.735 21.373c1.529 5.099 7.531 7.315 12.008 4.421 19.31-12.491 44.992.793 46.212 23.54.673 12.537-6.607 24.286-18.116 29.237a7.998 7.998 0 0 0-4.839 7.349V242c0 4.411-3.589 8-8 8h-112a8 8 0 0 0 0 16h112c13.233 0 24-10.767 24-24v-90.163c14.81-8.581 23.865-24.979 22.932-42.36z" fill="#000000" opacity="1" data-original="#000000"></path><path d="M236.003 115v68a8 8 0 0 0 16 0v-68a8 8 0 0 0-16 0zM276.003 115v68a8 8 0 0 0 16 0v-68a8 8 0 0 0-16 0z" fill="#000000" opacity="1" data-original="#000000"></path><path d="M396.003 421a8 8 0 0 0 8-8v-31.527c10.841-2.308 19-11.954 19-23.473V24c0-13.233-10.767-24-24-24H165.648a8 8 0 0 0 0 16h233.355c4.411 0 8 3.589 8 8v334c0 4.411-3.589 8-8 8h-295c-11.87 0-22.719 4.433-31 11.717V47c0-17.094 13.907-31 31-31v307a8 8 0 0 0 16 0V8a8 8 0 0 0-8-8h-8c-25.916 0-47 21.084-47 47v366c0 25.916 21.084 47 47 47h22.677c0 13.271 12.538 22.703 25.204 19.308l16.119-4.33c17.218 4.625 17.84 5.028 21.375 5.028 10.686 0 19.948-8.649 19.948-19.944 0-.1-9.616-.062 201.677-.062a8 8 0 0 0 0-16H209.326v-23zm-202.677 39.062c0 2.591-2.5 4.48-5.054 3.793l-18.194-4.887a8.001 8.001 0 0 0-4.15 0l-18.193 4.887c-2.555.688-5.054-1.203-5.054-3.793V452a8 8 0 0 0-8-8h-30.677c-17.093 0-31-13.906-31-31s13.907-31 31-31h284v23H123.39a8 8 0 0 0 0 16h69.936z" fill="#000000" opacity="1" data-original="#000000"></path></g></svg>