<svg xmlns="http://www.w3.org/2000/svg" version="1.1" xmlns:xlink="http://www.w3.org/1999/xlink" width="512" height="512" x="0" y="0" viewBox="0 0 480.006 480.006" style="enable-background:new 0 0 512 512" xml:space="preserve" class=""><g><path fill="#c0b3ff" d="M399.003 8h-295c-21.54 0-39 17.46-39 39 0 51.53-.119 379.661.01 365.603C64.804 434.301 83.026 452 104.773 452h283.23a8 8 0 0 0 8-8v-70h3c8.84 0 16-7.16 16-16V24c0-8.84-7.16-16-16-16z" opacity="1" data-original="#c0b3ff"></path><path fill="#b49ef2" d="M415.003 140.594V358c0 8.837-7.163 16-16 16h-287V159.385c0-5.912 6.182-9.778 11.499-7.193 88.233 42.898 192.425 39.04 279.097-18.271 5.319-3.517 12.404.296 12.404 6.673z" opacity="1" data-original="#b49ef2"></path><path fill="#b49ef2" d="M112.003 8v366h-8c-21.54 0-39 17.46-39 39V47c0-21.54 17.46-39 39-39z" opacity="1" data-original="#b49ef2"></path><path fill="#a592ea" d="M112.003 154.27V374h-8c-21.54 0-39 17.46-39 39V162.475c0-2.259.961-4.407 2.625-5.935 6.944-6.375 16.207-10.269 26.375-10.269h10a7.999 7.999 0 0 1 8 7.999z" opacity="1" data-original="#a592ea"></path><path fill="#ffebd2" d="M396.003 374v70a8 8 0 0 1-8 8h-283.23c-21.869 0-40.181-17.896-39.762-39.761C65.418 391.051 82.718 374 104.003 374z" opacity="1" data-original="#ffebd2"></path><path fill="#ffd9ad" d="M396.003 374v6a8 8 0 0 1-8 8h-260c-25.266 0-41.882 22.714-38.587 44.686 1.165 7.768-8.26 12.51-13.675 6.82C52.179 414.746 69.976 374 104.003 374z" opacity="1" data-original="#ffd9ad"></path><path fill="#cbe3fa" d="M201.323 413v47.06c0 7.86-7.5 13.57-15.13 11.52l-18.19-4.89-18.19 4.89c-7.63 2.05-15.13-3.66-15.13-11.52V413z" opacity="1" data-original="#cbe3fa"></path><path fill="#eef7ff" d="M155.832 465.177c1.06 2.222-.277 4.86-2.654 5.498l-3.365.904c-7.63 2.05-15.13-3.66-15.13-11.52V413h20v47.06c0 1.85.415 3.58 1.149 5.117z" opacity="1" data-original="#eef7ff"></path><path fill="#cbe3fa" d="M363.453 83.82c7.09.55 11.97 7.36 10.29 14.27-6.82 28.06-22.8 86.93-98.95 105.13-4.05.97-8.31-.31-11.16-3.34-53.8-57.22-34.65-115.05-24.89-142.23 2.42-6.73 10.29-9.64 16.56-6.19a266.614 266.614 0 0 0 108.15 32.36z" opacity="1" data-original="#cbe3fa"></path><path fill="#eef7ff" d="M313.093 109.74c11.5 32.03 34.07 100.18-29.34 167.62-3.35 3.57-8.38 5.07-13.15 3.94-89.75-21.45-108.58-90.84-116.62-123.9-1.98-8.15 3.78-16.18 12.14-16.83a314.126 314.126 0 0 0 127.45-38.13c7.39-4.07 16.67-.64 19.52 7.3z" opacity="1" data-original="#eef7ff"></path><path fill="#cbe3fa" d="M283.753 277.36c-3.35 3.57-8.38 5.07-13.15 3.94-72.235-17.261-98.529-65.575-110.233-101.016-2.016-6.105 3.585-12.005 9.764-10.231 49.825 14.304 100.129 14.256 146.389 2.354 5.126-1.319 10.14 2.613 9.986 7.904-.853 29.458-11.069 63.341-42.756 97.049z" opacity="1" data-original="#cbe3fa"></path><path fill="#9ec7f0" d="M217.756 236.791a8 8 0 0 1 7.592-14.084c22.935 12.362 51.65 3.763 64.015-19.171a8 8 0 0 1 14.084 7.592c-16.42 30.458-54.61 42.419-85.691 25.663z" opacity="1" data-original="#9ec7f0"></path><path d="M268.743 289.076a21.736 21.736 0 0 0 20.843-6.24c28.739-30.565 43.854-64.997 44.925-102.337.924-32.21-8.713-59.046-13.891-73.464-4.51-12.556-19.195-18.055-30.909-11.596a307.22 307.22 0 0 1-18.267 9.291 8 8 0 1 0 6.772 14.496 323.69 323.69 0 0 0 19.223-9.776c3.086-1.703 6.938-.307 8.123 2.993 10.112 28.158 33.794 94.102-27.633 159.435a5.707 5.707 0 0 1-5.467 1.636c-87.084-20.811-103.635-88.92-110.702-118.005-.817-3.364 1.543-6.693 4.978-6.96a323.185 323.185 0 0 0 63.76-11.477c3.734-1.059 6.253-4.775 5.73-8.733-3.85-29.293 5.188-54.46 10.044-67.981.749-2.084 3.187-2.98 5.166-1.889 34.553 19.057 72.031 30.269 111.396 33.324 2.162.168 3.659 2.276 3.14 4.411-1.871 7.694-5.353 22.017-12.374 36.608a8 8 0 0 0 14.418 6.938c6.813-14.159 10.517-27.48 13.503-39.767 2.853-11.738-5.485-23.215-17.449-24.142-37.071-2.878-72.366-13.437-104.906-31.383-10.608-5.85-23.879-.849-27.951 10.491-4.584 12.767-13.765 38.356-11.554 68.493a307.134 307.134 0 0 1-54.16 9.154c-13.257 1.027-22.432 13.749-19.286 26.689 7.089 29.186 25.927 106.705 122.528 129.791z" fill="#000000" opacity="1" data-original="#000000"></path><path d="M217.756 236.791c30.728 16.563 69.075 5.154 85.691-25.663a8 8 0 0 0-14.084-7.592c-12.392 22.987-41.025 31.568-64.015 19.171a8 8 0 0 0-7.592 14.084zM222.914 187.093a8.002 8.002 0 0 0 10.838-3.246 7.999 7.999 0 0 0-3.246-10.838c-12.368-6.664-27.856-2.029-34.525 10.338a8 8 0 1 0 14.084 7.594c2.481-4.603 8.244-6.329 12.849-3.848zM292.269 154.516c-12.371-6.667-27.857-2.029-34.525 10.338a8 8 0 0 0 3.245 10.839c3.928 2.115 8.76.609 10.839-3.245 2.481-4.604 8.245-6.329 12.85-3.848a8.001 8.001 0 0 0 10.838-3.246 8.002 8.002 0 0 0-3.247-10.838z" fill="#000000" opacity="1" data-original="#000000"></path><path d="M396.003 421a8 8 0 0 0 8-8v-31.528c10.841-2.307 19-11.953 19-23.472V24c0-13.233-10.767-24-24-24H165.648a8 8 0 0 0 0 16h233.354c4.411 0 8 3.589 8 8v334c0 4.411-3.589 8-8 8h-295c-11.87 0-22.719 4.432-31 11.717V47c0-17.094 13.906-31 31-31v307a8 8 0 0 0 16 0V8a8 8 0 0 0-8-8h-8c-25.916 0-47 21.084-47 47v366c0 25.916 21.084 47 47 47h22.678c0 13.287 12.559 22.701 25.204 19.308l16.118-4.33c17.295 4.646 17.865 5.028 21.374 5.028 10.686 0 19.948-8.649 19.948-19.944 0-.1-9.616-.062 201.678-.062a8 8 0 0 0 0-16H209.325v-23zm-202.678 39.062c0 2.567-2.474 4.484-5.054 3.793l-18.193-4.887a8.044 8.044 0 0 0-4.15 0l-18.192 4.887c-2.568.687-5.055-1.213-5.055-3.793V452a8 8 0 0 0-8-8h-30.678c-17.094 0-31-13.906-31-31s13.906-31 31-31h284v23H123.39a8 8 0 0 0 0 16h69.936v39.062z" fill="#000000" opacity="1" data-original="#000000"></path><path d="M354.003 313h-19.581a8 8 0 0 0 0 16h19.581a8 8 0 0 0 0-16zM174.003 313a8 8 0 0 0 0 16h113.064a8 8 0 0 0 0-16z" fill="#000000" opacity="1" data-original="#000000"></path></g></svg>