<svg xmlns="http://www.w3.org/2000/svg" version="1.1" xmlns:xlink="http://www.w3.org/1999/xlink" width="512" height="512" x="0" y="0" viewBox="0 0 480.006 480.006" style="enable-background:new 0 0 512 512" xml:space="preserve" class=""><g><path fill="#c2d6ff" d="M399.003 8h-295c-21.54 0-39 17.46-39 39 0 51.53-.119 379.661.01 365.603C64.804 434.301 83.026 452 104.773 452h283.23a8 8 0 0 0 8-8v-70h3c8.84 0 16-7.16 16-16V24c0-8.84-7.16-16-16-16z" opacity="1" data-original="#c2d6ff"></path><path fill="#9cbcff" d="M415.003 140.594V358c0 8.837-7.163 16-16 16h-287V159.385c0-5.912 6.182-9.778 11.499-7.193 88.233 42.898 192.425 39.04 279.097-18.271 5.319-3.517 12.404.296 12.404 6.673z" opacity="1" data-original="#9cbcff" class=""></path><path fill="#9cbcff" d="M112.003 8v366h-8c-21.54 0-39 17.46-39 39V47c0-21.54 17.46-39 39-39z" opacity="1" data-original="#9cbcff" class=""></path><path fill="#80aaff" d="M112.003 154.27V374h-8c-21.54 0-39 17.46-39 39V162.475c0-2.259.961-4.407 2.625-5.935 6.944-6.375 16.207-10.269 26.375-10.269h10a7.999 7.999 0 0 1 8 7.999z" opacity="1" data-original="#80aaff" class=""></path><path fill="#ffebd2" d="M396.003 374v70a8 8 0 0 1-8 8h-283.23c-21.869 0-40.181-17.896-39.762-39.761C65.418 391.051 82.718 374 104.003 374z" opacity="1" data-original="#ffebd2"></path><path fill="#ffd9ad" d="M396.003 374v6a8 8 0 0 1-8 8h-260c-25.266 0-41.882 22.714-38.587 44.686 1.165 7.768-8.26 12.51-13.675 6.82C52.179 414.746 69.976 374 104.003 374z" opacity="1" data-original="#ffd9ad"></path><path fill="#cbe3fa" d="M201.323 413v47.06c0 7.86-7.5 13.57-15.13 11.52l-18.19-4.89-18.19 4.89c-7.63 2.05-15.13-3.66-15.13-11.52V413z" opacity="1" data-original="#cbe3fa"></path><path fill="#eef7ff" d="M155.832 465.177c1.06 2.222-.277 4.86-2.654 5.498l-3.365.904c-7.63 2.05-15.13-3.66-15.13-11.52V413h20v47.06c0 1.85.415 3.58 1.149 5.117z" opacity="1" data-original="#eef7ff"></path><path fill="#ffffff" d="M353.963 111.11c3.99 6.92 2.31 15.72-3.95 20.68l-6.77 5.35c3.56 14 3.55 28.75 0 42.72l6.77 5.35c6.26 4.96 7.94 13.76 3.95 20.68l-6.19 10.72c-3.99 6.92-12.46 9.86-19.88 6.92l-8.06-3.2c-10.2 9.95-22.84 17.39-36.95 21.35l-1.26 8.56c-1.17 7.9-7.95 13.76-15.94 13.76h-12.37c-7.99 0-14.77-5.86-15.93-13.76l-1.26-8.56a86.359 86.359 0 0 1-36.96-21.35l-8.05 3.2c-7.43 2.94-15.89 0-19.88-6.92l-6.19-10.72c-4-6.92-2.31-15.72 3.95-20.68l6.76-5.35c-3.55-14-3.55-28.75 0-42.72l-6.76-5.35c-6.26-4.96-7.95-13.76-3.95-20.68l6.19-10.72c3.99-6.92 12.45-9.86 19.88-6.92l8.05 3.2a86.359 86.359 0 0 1 36.96-21.35l1.26-8.56c1.16-7.9 7.94-13.76 15.93-13.76h12.37c7.99 0 14.77 5.86 15.94 13.76l1.26 8.56c14.11 3.96 26.75 11.4 36.95 21.35l8.06-3.2c7.42-2.94 15.89 0 19.88 6.92zM303.003 159c0-23.75-19.25-43-43-43s-43 19.25-43 43 19.25 43 43 43 43-19.25 43-43z" opacity="1" data-original="#ffffff"></path><path fill="#eef7ff" d="m353.963 205.89-6.19 10.72c-3.99 6.92-12.46 9.86-19.88 6.92l-8.06-3.2c-10.2 9.95-22.84 17.39-36.95 21.35l-1.26 8.56c-1.17 7.9-7.95 13.76-15.94 13.76h-12.37c-7.99 0-14.77-5.86-15.93-13.76l-1.26-8.56a86.359 86.359 0 0 1-36.96-21.35l-8.05 3.2c-7.43 2.94-15.89 0-19.88-6.92l-6.19-10.72c-4-6.92-2.31-15.72 3.95-20.68l6.76-5.35a84.976 84.976 0 0 1-.581-2.443c-.644-2.893 2.023-5.424 4.899-4.708a283.012 283.012 0 0 0 40.329 7.007c1.225.122 2.341.789 2.987 1.837 17.745 28.779 60.288 26.761 75.222-3.591a3.962 3.962 0 0 1 2.796-2.119 276.392 276.392 0 0 0 38.497-10.566c2.805-.992 5.69 1.305 5.312 4.256a85.982 85.982 0 0 1-1.97 10.326l6.77 5.35c6.259 4.961 7.939 13.761 3.949 20.681z" opacity="1" data-original="#eef7ff"></path><path d="M354.003 313h-19.581a8 8 0 0 0 0 16h19.581a8 8 0 0 0 0-16zM174.003 313a8 8 0 0 0 0 16h113.064a8 8 0 0 0 0-16zM158.117 209.89l6.188 10.717c5.926 10.275 18.716 14.727 29.766 10.358l3.375-1.342a94.758 94.758 0 0 0 31.497 18.195l.527 3.584C231.194 263.146 241.445 272 253.315 272h12.37c11.86 0 22.115-8.851 23.854-20.595l1.26-8.561a8 8 0 0 0-6.75-9.08 7.99 7.99 0 0 0-9.08 6.75l-1.259 8.554c-.585 3.951-4.035 6.932-8.025 6.932h-12.37c-3.99 0-7.436-2.976-8.016-6.925l-1.26-8.561a8 8 0 0 0-5.753-6.537c-12.561-3.525-24.156-10.225-33.536-19.374a7.994 7.994 0 0 0-8.541-1.707l-8.038 3.195c-3.715 1.469-8.016-.026-10.009-3.481l-6.192-10.725c-1.995-3.451-1.139-7.925 1.989-10.402l6.76-5.35a8.001 8.001 0 0 0 2.79-8.239 79.057 79.057 0 0 1-.001-38.785 8 8 0 0 0-2.789-8.243l-6.756-5.347c-3.132-2.48-3.988-6.954-1.991-10.409l6.193-10.725c1.99-3.451 6.29-4.951 9.994-3.481l8.05 3.199a7.99 7.99 0 0 0 8.541-1.707c9.38-9.149 20.976-15.849 33.536-19.374a8.001 8.001 0 0 0 5.753-6.537l1.26-8.563c.58-3.946 4.025-6.922 8.016-6.922h12.37c3.99 0 7.44 2.98 8.024 6.925l1.26 8.561a8 8 0 0 0 5.753 6.537c12.551 3.522 24.144 10.222 33.526 19.374a7.997 7.997 0 0 0 8.538 1.709l8.055-3.198c3.713-1.47 8.012.025 10.005 3.482l6.188 10.717c1.995 3.459 1.141 7.936-1.979 10.406l-6.771 5.35a8 8 0 0 0-2.793 8.249 78.938 78.938 0 0 1-.001 38.779 8 8 0 0 0 2.794 8.247l6.763 5.343c3.127 2.478 3.981 6.954 1.988 10.409l-6.191 10.725c-1.991 3.453-6.289 4.952-9.997 3.48l-8.061-3.2c-4.104-1.631-8.756.378-10.388 4.483a8.002 8.002 0 0 0 4.483 10.388l8.066 3.202c11.04 4.372 23.83-.083 29.755-10.357l6.191-10.725c5.926-10.276 3.384-23.58-5.92-30.953l-2.825-2.231a95.099 95.099 0 0 0 0-36.402l2.834-2.238c9.295-7.366 11.837-20.67 5.909-30.95l-6.188-10.717c-5.928-10.278-18.717-14.734-29.763-10.359l-3.387 1.345a94.755 94.755 0 0 0-31.489-18.197l-.528-3.594C287.801 53.851 277.546 45 265.686 45h-12.37c-11.87 0-22.121 8.854-23.846 20.595l-.527 3.587a94.758 94.758 0 0 0-31.497 18.195l-3.387-1.346c-11.036-4.368-23.828.087-29.751 10.358l-6.188 10.717c-5.938 10.273-3.398 23.58 5.911 30.957l2.82 2.231a95.235 95.235 0 0 0 .002 36.409l-2.826 2.235c-9.306 7.375-11.846 20.682-5.91 30.952z" fill="#000000" opacity="1" data-original="#000000" class=""></path><path d="M311.003 159c0-28.121-22.879-51-51-51-10.485 0-20.559 3.159-29.133 9.135a8 8 0 1 0 9.149 13.127c22.882-15.951 54.984.31 54.984 28.738 0 19.299-15.701 35-35 35-21.2 0-37.809-18.877-34.609-40.259a7.999 7.999 0 0 0-6.725-9.098 7.989 7.989 0 0 0-9.098 6.725C204.934 182.264 228.902 210 260.003 210c28.121 0 51-22.879 51-51z" fill="#000000" opacity="1" data-original="#000000" class=""></path><path d="M396.003 421a8 8 0 0 0 8-8v-31.528c10.841-2.307 19-11.953 19-23.472V24c0-13.233-10.767-24-24-24H165.648a8 8 0 0 0 0 16h233.354c4.411 0 8 3.589 8 8v334c0 4.411-3.589 8-8 8h-295c-11.87 0-22.719 4.432-31 11.717V47c0-17.094 13.906-31 31-31v307a8 8 0 0 0 16 0V8a8 8 0 0 0-8-8h-8c-25.916 0-47 21.084-47 47v366c0 25.916 21.084 47 47 47h22.678c0 13.287 12.559 22.701 25.204 19.308l16.118-4.33c17.295 4.646 17.865 5.028 21.374 5.028 10.686 0 19.948-8.649 19.948-19.944 0-.1-9.616-.062 201.678-.062a8 8 0 0 0 0-16H209.325v-23zm-202.678 39.062c0 2.579-2.486 4.481-5.054 3.793l-18.193-4.887a8.044 8.044 0 0 0-4.15 0l-18.192 4.887c-2.559.685-5.055-1.204-5.055-3.793V452a8 8 0 0 0-8-8h-30.678c-17.094 0-31-13.906-31-31s13.906-31 31-31h284v23H123.39a8 8 0 0 0 0 16h69.936v39.062z" fill="#000000" opacity="1" data-original="#000000" class=""></path></g></svg>