<svg xmlns="http://www.w3.org/2000/svg" version="1.1" xmlns:xlink="http://www.w3.org/1999/xlink" width="512" height="512" x="0" y="0" viewBox="0 0 480.005 480.005" style="enable-background:new 0 0 512 512" xml:space="preserve" class=""><g><path fill="#e0b7a3" d="M399.002 8h-295c-21.54 0-39 17.46-39 39 0 51.53-.119 379.661.01 365.603C64.804 434.301 83.026 452 104.773 452h283.23a8 8 0 0 0 8-8v-70h3c8.84 0 16-7.16 16-16V24c-.001-8.84-7.16-16-16.001-16z" opacity="1" data-original="#e0b7a3"></path><path fill="#c79a83" d="M415.002 140.594V358c0 8.837-7.163 16-16 16h-287V159.385c0-5.912 6.182-9.778 11.499-7.193 88.233 42.898 192.425 39.04 279.097-18.271 5.319-3.517 12.404.296 12.404 6.673zM112.002 8v366h-8c-21.54 0-39 17.46-39 39V47c0-21.54 17.46-39 39-39z" opacity="1" data-original="#c79a83"></path><path fill="#a07765" d="M112.002 154.27V374h-8c-21.54 0-39 17.46-39 39V162.475c0-2.259.961-4.407 2.625-5.935 6.944-6.375 16.207-10.269 26.375-10.269h10a7.998 7.998 0 0 1 8 7.999z" opacity="1" data-original="#a07765"></path><path fill="#ffebd2" d="M396.002 374v70a8 8 0 0 1-8 8h-283.23c-21.869 0-40.181-17.896-39.762-39.761C65.418 391.051 82.717 374 104.002 374z" opacity="1" data-original="#ffebd2"></path><path fill="#ffd9ad" d="M396.002 374v6a8 8 0 0 1-8 8h-260c-25.266 0-41.882 22.714-38.587 44.686 1.165 7.768-8.26 12.51-13.675 6.82C52.179 414.746 69.976 374 104.002 374z" opacity="1" data-original="#ffd9ad"></path><path fill="#ffe773" d="M201.322 413v47.06c0 7.86-7.5 13.57-15.13 11.52l-18.19-4.89-18.19 4.89c-7.63 2.05-15.13-3.66-15.13-11.52V413z" opacity="1" data-original="#ffe773"></path><path fill="#fff0a6" d="M155.831 465.177c1.06 2.222-.277 4.86-2.654 5.498l-3.365.904c-7.63 2.05-15.13-3.66-15.13-11.52V413h20v47.06c0 1.85.415 3.58 1.149 5.117z" opacity="1" data-original="#fff0a6"></path><circle cx="263.502" cy="217" r="106" fill="#fff0a6" opacity="1" data-original="#fff0a6"></circle><path fill="#ffe773" d="M369.502 217c0 59.036-48.268 106.804-107.491 105.99-74.502-1.024-125.369-77.738-96.283-146.987 1.534-3.652 5.561-5.598 9.387-4.573a286.223 286.223 0 0 0 15.405 3.674c5.019 1.051 7.707 6.51 5.578 11.175-22.509 49.312 14.262 104.917 67.597 104.781 40.811-.104 73.869-33.224 73.869-74.06 0-13.66-3.698-26.453-10.15-37.439-2.587-4.404-.326-10.048 4.539-11.605a273.925 273.925 0 0 0 14.764-5.198c3.731-1.435 7.982.043 9.897 3.553 8.218 15.058 12.888 32.328 12.888 50.689z" opacity="1" data-original="#ffe773"></path><path fill="#fff8d6" d="M263.502 142.935c40.903 0 74.061 33.161 74.061 74.065s-33.158 74.065-74.061 74.065-74.064-33.162-74.064-74.065 33.161-74.065 74.064-74.065z" opacity="1" data-original="#fff8d6"></path><path fill="#fff0a6" d="M337.564 217c0 40.836-33.057 73.956-73.869 74.06-40.032.102-73.226-32.14-74.229-72.16-.334-13.34 2.863-25.898 8.714-36.825 1.596-2.98 4.904-4.612 8.247-4.108 37.371 5.632 74.758 3.514 109.949-5.525 3.25-.835 6.697.429 8.573 3.21 7.968 11.81 12.615 26.034 12.615 41.348z" opacity="1" data-original="#fff0a6"></path><path d="M354.002 60a8 8 0 0 0 0-16h-19.581a8 8 0 0 0 0 16zM287.067 60a8 8 0 0 0 0-16H174.002a8 8 0 0 0 0 16zM263.502 331c62.86 0 114-51.14 114-114 0-28.09-10.307-55.078-29.021-75.992a8 8 0 0 0-11.923 10.669c16.085 17.977 24.944 41.175 24.944 65.323 0 54.038-43.962 98-98 98s-98-43.962-98-98c0-67.53 67.134-114.986 130.799-92.379a8.001 8.001 0 0 0 5.354-15.078C227.628 83.26 149.502 138.4 149.502 217c0 62.86 51.141 114 114 114z" fill="#000000" opacity="1" data-original="#000000"></path><path d="M263.035 271a8 8 0 0 0 8-8v-5.458c12.277-2.918 21.298-12.369 21.298-23.553 0-18.655-16.665-22.068-27.693-24.326-13.048-2.672-14.903-4.245-14.903-8.651 0-4.015 5.461-8.489 13.298-8.489 4.993 0 9.705 1.957 12.003 4.984 2.671 3.52 7.69 4.206 11.209 1.535a8 8 0 0 0 1.535-11.209c-3.914-5.156-9.886-8.789-16.747-10.389V172a8 8 0 0 0-16 0v5.458c-12.277 2.918-21.298 12.369-21.298 23.553 0 18.655 16.665 22.068 27.693 24.326 13.048 2.672 14.903 4.245 14.903 8.651 0 4.015-5.461 8.489-13.298 8.489-4.993 0-9.705-1.957-12.003-4.984-2.671-3.52-7.69-4.207-11.209-1.535a8 8 0 0 0-1.535 11.209c3.914 5.156 9.886 8.789 16.747 10.389V263a8 8 0 0 0 8 8z" fill="#000000" opacity="1" data-original="#000000"></path><path d="M396.002 421a8 8 0 0 0 8-8v-31.528c10.841-2.307 19-11.954 19-23.472V24c0-13.233-10.767-24-24-24H165.647a8 8 0 0 0 0 16h233.355c4.411 0 8 3.589 8 8v334c0 4.411-3.589 8-8 8h-295c-11.87 0-22.719 4.432-31 11.717V47c0-17.093 13.907-31 31-31v307a8 8 0 0 0 16 0V8a8 8 0 0 0-8-8h-8c-25.916 0-47 21.084-47 47v366c0 25.916 21.084 47 47 47h22.677c0 13.289 12.562 22.702 25.204 19.307l16.119-4.329c17.216 4.623 17.837 5.027 21.375 5.027 10.687 0 19.947-8.649 19.947-19.944 0-.1-9.616-.061 201.677-.061a8 8 0 0 0 0-16H209.325v-23zm-202.677 39.061c0 2.581-2.491 4.481-5.054 3.793l-18.194-4.886a8.001 8.001 0 0 0-4.15 0l-18.194 4.886c-2.567.686-5.054-1.212-5.054-3.793V452a8 8 0 0 0-8-8h-30.677c-17.093 0-31-13.907-31-31s13.907-31 31-31h284v23H123.39a8 8 0 0 0 0 16h69.936v39.061z" fill="#000000" opacity="1" data-original="#000000"></path></g></svg>