<svg xmlns="http://www.w3.org/2000/svg" version="1.1" xmlns:xlink="http://www.w3.org/1999/xlink" width="512" height="512" x="0" y="0" viewBox="0 0 480.006 480.006" style="enable-background:new 0 0 512 512" xml:space="preserve" class=""><g><path fill="#9cbcff" d="M399.003 8h-295c-21.54 0-39 17.46-39 39 0 51.53-.119 379.661.01 365.603C64.804 434.301 83.026 452 104.773 452h283.23a8 8 0 0 0 8-8v-70h3c8.84 0 16-7.16 16-16V24c0-8.84-7.16-16-16-16z" opacity="1" data-original="#9cbcff"></path><path fill="#80aaff" d="M415.003 140.594V358c0 8.837-7.163 16-16 16h-287V159.385c0-5.912 6.182-9.778 11.499-7.193 88.233 42.898 192.425 39.04 279.097-18.271 5.319-3.517 12.404.296 12.404 6.673z" opacity="1" data-original="#80aaff"></path><path fill="#80aaff" d="M112.003 8v366h-8c-21.54 0-39 17.46-39 39V47c0-21.54 17.46-39 39-39z" opacity="1" data-original="#80aaff"></path><path fill="#719efa" d="M112.003 154.27V374h-8c-21.54 0-39 17.46-39 39V162.475c0-2.259.961-4.407 2.625-5.935 6.944-6.375 16.207-10.269 26.375-10.269h10a7.999 7.999 0 0 1 8 7.999z" opacity="1" data-original="#719efa"></path><path fill="#ffebd2" d="M396.003 374v70a8 8 0 0 1-8 8h-283.23c-21.869 0-40.181-17.896-39.762-39.761C65.418 391.051 82.718 374 104.003 374z" opacity="1" data-original="#ffebd2"></path><path fill="#ffd9ad" d="M396.003 374v6a8 8 0 0 1-8 8h-260c-25.266 0-41.882 22.714-38.587 44.686 1.165 7.768-8.26 12.51-13.675 6.82C52.179 414.746 69.976 374 104.003 374z" opacity="1" data-original="#ffd9ad"></path><path fill="#cbe3fa" d="M201.323 413v47.06c0 7.86-7.5 13.57-15.13 11.52l-18.19-4.89-18.19 4.89c-7.63 2.05-15.13-3.66-15.13-11.52V413z" opacity="1" data-original="#cbe3fa"></path><path fill="#eef7ff" d="M155.832 465.177c1.06 2.222-.277 4.86-2.654 5.498l-3.365.904c-7.63 2.05-15.13-3.66-15.13-11.52V413h20v47.06c0 1.85.415 3.58 1.149 5.117zM342.003 54h-156c-8.84 0-16 7.16-16 16v158c0 8.84 7.16 16 16 16h30.37c-.15 8.19-2.2 15.96-5.75 22.89-3.99 7.78 3.33 16.45 11.74 14.08 17.86-5.02 33.25-17.81 40.78-36.97h78.86c8.84 0 16-7.16 16-16V70c0-8.84-7.16-16-16-16z" opacity="1" data-original="#eef7ff"></path><path fill="#cbe3fa" d="M358.003 170.068V228c0 8.837-7.163 16-16 16h-78.86c-7.53 19.16-22.92 31.95-40.78 36.97-8.41 2.37-15.73-6.3-11.74-14.08a52.175 52.175 0 0 0 5.75-22.89h-30.37c-8.837 0-16-7.163-16-16v-47.569c0-5.202 4.887-9.014 9.935-7.755 56.516 14.092 114.329 10.279 167.143-10.054 5.261-2.025 10.922 1.809 10.922 7.446z" opacity="1" data-original="#cbe3fa"></path><path d="M334.422 313a8 8 0 0 0 0 16h19.581a8 8 0 0 0 0-16zM166.003 321a8 8 0 0 0 8 8h113.064a8 8 0 0 0 0-16H174.003a8 8 0 0 0-8 8zM366.003 70c0-13.233-10.767-24-24-24h-156c-13.233 0-24 10.767-24 24v158c0 13.233 10.767 24 24 24h21.474a44.07 44.07 0 0 1-3.976 11.244c-7.211 14.067 5.998 29.668 21.035 25.431 21.183-5.964 37.969-21.181 46.055-41.748a8 8 0 0 0-14.891-5.853c-6.238 15.868-19.178 27.605-35.499 32.2-1.185.335-1.914-.292-2.243-.695-.775-.948-.356-1.765-.219-2.033 4.236-8.264 6.468-17.146 6.633-26.403.079-4.465-3.521-8.142-7.999-8.142h-30.37c-4.411 0-8-3.589-8-8V70c0-4.411 3.589-8 8-8h156c4.411 0 8 3.589 8 8v158c0 4.411-3.589 8-8 8h-29.258a8 8 0 0 0 0 16h29.258c13.233 0 24-10.767 24-24z" fill="#000000" opacity="1" data-original="#000000"></path><path d="M251.003 189a8 8 0 0 0 0 16h26a8 8 0 0 0 0-16h-5v-54a8 8 0 0 0-8-8h-13a8 8 0 0 0 0 16h5v46z" fill="#000000" opacity="1" data-original="#000000"></path><circle cx="262.003" cy="102" r="12" fill="#000000" opacity="1" data-original="#000000"></circle><path d="M396.003 421a8 8 0 0 0 8-8v-31.527c10.841-2.308 19-11.954 19-23.473V24c0-13.233-10.767-24-24-24H165.648a8 8 0 0 0 0 16h233.354c4.411 0 8 3.589 8 8v334c0 4.411-3.589 8-8 8h-295c-11.87 0-22.719 4.433-31 11.717V47c0-17.094 13.906-31 31-31v307a8 8 0 0 0 16 0V8a8 8 0 0 0-8-8h-8c-25.916 0-47 21.084-47 47v366c0 25.916 21.084 47 47 47h22.678c0 13.287 12.562 22.704 25.204 19.308l16.118-4.33c17.295 4.646 17.865 5.028 21.374 5.028 10.686 0 19.948-8.649 19.948-19.944 0-.1-9.616-.062 201.678-.062a8 8 0 0 0 0-16H209.325v-23zm-202.678 39.062c0 2.577-2.485 4.483-5.054 3.793l-18.193-4.887a8.044 8.044 0 0 0-4.15 0l-18.192 4.887c-2.566.686-5.055-1.21-5.055-3.793V452a8 8 0 0 0-8-8h-30.678c-17.094 0-31-13.906-31-31s13.906-31 31-31h284v23H123.39a8 8 0 0 0 0 16h69.936v39.062z" fill="#000000" opacity="1" data-original="#000000"></path></g></svg>