<svg xmlns="http://www.w3.org/2000/svg" version="1.1" xmlns:xlink="http://www.w3.org/1999/xlink" width="512" height="512" x="0" y="0" viewBox="0 0 480.005 480.005" style="enable-background:new 0 0 512 512" xml:space="preserve" class=""><g><path fill="#6e6f80" d="M399.002 8h-295c-21.54 0-39 17.46-39 39 0 51.53-.119 379.661.01 365.603C64.804 434.301 83.026 452 104.773 452h283.23a8 8 0 0 0 8-8v-70h3c8.84 0 16-7.16 16-16V24c-.001-8.84-7.16-16-16.001-16z" opacity="1" data-original="#6e6f80"></path><path fill="#585966" d="M415.002 140.594V358c0 8.837-7.163 16-16 16h-287V159.385c0-5.912 6.182-9.778 11.499-7.193 88.233 42.898 192.425 39.04 279.097-18.271 5.319-3.517 12.404.296 12.404 6.673zM112.002 8v366h-8c-21.54 0-39 17.46-39 39V47c0-21.54 17.46-39 39-39z" opacity="1" data-original="#585966"></path><path fill="#42434d" d="M112.002 154.27V374h-8c-21.54 0-39 17.46-39 39V162.475c0-2.259.961-4.407 2.625-5.935 6.944-6.375 16.207-10.269 26.375-10.269h10a7.998 7.998 0 0 1 8 7.999z" opacity="1" data-original="#42434d"></path><path fill="#ffebd2" d="M396.002 374v70a8 8 0 0 1-8 8h-283.23c-21.869 0-40.181-17.896-39.762-39.761C65.418 391.051 82.717 374 104.002 374z" opacity="1" data-original="#ffebd2"></path><path fill="#ffd9ad" d="M396.002 374v6a8 8 0 0 1-8 8h-260c-25.266 0-41.882 22.714-38.587 44.686 1.165 7.768-8.26 12.51-13.675 6.82C52.179 414.746 69.976 374 104.002 374z" opacity="1" data-original="#ffd9ad"></path><path fill="#80aaff" d="M201.322 413v47.06c0 7.86-7.5 13.57-15.13 11.52l-18.19-4.89-18.19 4.89c-7.63 2.05-15.13-3.66-15.13-11.52V413z" opacity="1" data-original="#80aaff"></path><path fill="#9cbcff" d="M155.831 465.177c1.06 2.222-.277 4.86-2.654 5.498l-3.365.904c-7.63 2.05-15.13-3.66-15.13-11.52V413h20v47.06c0 1.85.415 3.58 1.149 5.117z" opacity="1" data-original="#9cbcff"></path><path fill="#ffd9ad" d="M331.002 268c8.84 0 16 7.16 16 16v16c0 8.84-7.16 16-16 16h-134c-8.84 0-16-7.16-16-16v-16c0-8.84 7.16-16 16-16z" opacity="1" data-original="#ffd9ad"></path><path fill="#fff3e4" d="M362.002 98c0 18.45-14.68 33.46-33 33.99V268h-130V132c-18.78 0-34-15.22-34-34s15.22-34 34-34h129c18.78 0 34 15.22 34 34z" opacity="1" data-original="#fff3e4"></path><path fill="#ffebd2" d="M329.002 179.497V268h-130v-81.866c0-4.879 4.323-8.608 9.152-7.912 37.194 5.361 74.812 3.146 110.756-6.443 5.093-1.358 10.092 2.447 10.092 7.718z" opacity="1" data-original="#ffebd2"></path><path d="M370.002 98c0-23.159-18.841-42-42-42h-129c-23.159 0-42 18.841-42 42s18.841 42 42 42 42-18.841 42-42a8 8 0 0 0-16 0c0 14.336-11.663 26-26 26s-26-11.664-26-26 11.663-26 26-26h129c14.337 0 26 11.664 26 26s-11.663 26-26 26-26-11.664-26-26a8 8 0 0 0-16 0c0 2.736.271 5.409.773 8h-22.773a8 8 0 0 0 0 16h29.563c6.326 9.049 16.117 15.498 27.438 17.406v93.207a8 8 0 0 0 16 0v-93.594c18.847-4.133 32.999-20.95 32.999-41.019z" fill="#000000" opacity="1" data-original="#000000"></path><path d="M181.002 288.226a8 8 0 0 0-8 8V300c0 13.233 10.767 24 24 24h134c13.233 0 24-10.767 24-24v-16c0-13.233-10.767-24-24-24h-39v-90a8 8 0 0 0-16 0v90h-24v-90a8 8 0 0 0-16 0v90h-29v-90a8 8 0 0 0-16 0v98a8 8 0 0 0 8 8h132c4.411 0 8 3.589 8 8v16c0 4.411-3.589 8-8 8h-134c-4.411 0-8-3.589-8-8v-3.774a8 8 0 0 0-8-8z" fill="#000000" opacity="1" data-original="#000000"></path><path d="M396.002 421a8 8 0 0 0 8-8v-31.528c10.841-2.307 19-11.954 19-23.472V24c0-13.233-10.767-24-24-24H165.648a8 8 0 0 0 0 16h233.354c4.411 0 8 3.589 8 8v334c0 4.411-3.589 8-8 8h-295c-11.87 0-22.719 4.432-31 11.717V47c0-17.093 13.906-31 31-31v307a8 8 0 0 0 16 0V8a8 8 0 0 0-8-8h-8c-25.916 0-47 21.084-47 47v366c0 25.916 21.084 47 47 47h22.678c0 13.29 12.564 22.703 25.204 19.307l16.118-4.329c17.178 4.613 17.834 5.027 21.375 5.027 10.686 0 19.947-8.649 19.947-19.944 0-.1-9.616-.061 201.678-.061a8 8 0 0 0 0-16H209.325v-23zm-202.677 39.061c0 2.58-2.488 4.483-5.054 3.793l-18.193-4.886a8.001 8.001 0 0 0-4.15 0l-18.193 4.886c-2.558.687-5.054-1.206-5.054-3.793V452a8 8 0 0 0-8-8h-30.678c-17.094 0-31-13.907-31-31s13.906-31 31-31h284v23H123.389a8 8 0 0 0 0 16h69.936z" fill="#000000" opacity="1" data-original="#000000"></path></g></svg>