<svg xmlns="http://www.w3.org/2000/svg" version="1.1" xmlns:xlink="http://www.w3.org/1999/xlink" width="512" height="512" x="0" y="0" viewBox="0 0 480.005 480.005" style="enable-background:new 0 0 512 512" xml:space="preserve" class=""><g><path fill="#6e6f80" d="M399.002 8h-295c-21.54 0-39 17.46-39 39 0 51.53-.119 379.661.01 365.603C64.804 434.301 83.026 452 104.773 452h283.23a8 8 0 0 0 8-8v-70h3c8.84 0 16-7.16 16-16V24c-.001-8.84-7.16-16-16.001-16z" opacity="1" data-original="#6e6f80"></path><path fill="#585966" d="M415.002 140.594V358c0 8.837-7.163 16-16 16h-287V159.385c0-5.912 6.182-9.778 11.499-7.193 88.233 42.898 192.425 39.04 279.097-18.271 5.319-3.517 12.404.296 12.404 6.673zM112.002 8v366h-8c-21.54 0-39 17.46-39 39V47c0-21.54 17.46-39 39-39z" opacity="1" data-original="#585966"></path><path fill="#42434d" d="M112.002 154.27V374h-8c-21.54 0-39 17.46-39 39V162.475c0-2.259.961-4.407 2.625-5.935 6.944-6.375 16.207-10.269 26.375-10.269h10a7.998 7.998 0 0 1 8 7.999z" opacity="1" data-original="#42434d"></path><path fill="#ffebd2" d="M396.002 374v70a8 8 0 0 1-8 8h-283.23c-21.869 0-40.181-17.896-39.762-39.761C65.418 391.051 82.717 374 104.002 374z" opacity="1" data-original="#ffebd2"></path><path fill="#ffd9ad" d="M396.002 374v6a8 8 0 0 1-8 8h-260c-25.266 0-41.882 22.714-38.587 44.686 1.165 7.768-8.26 12.51-13.675 6.82C52.179 414.746 69.976 374 104.002 374z" opacity="1" data-original="#ffd9ad"></path><path fill="#cbe3fa" d="M201.322 413v47.06c0 7.86-7.5 13.57-15.13 11.52l-18.19-4.89-18.19 4.89c-7.63 2.05-15.13-3.66-15.13-11.52V413z" opacity="1" data-original="#cbe3fa"></path><path fill="#eef7ff" d="M155.831 465.177c1.06 2.222-.277 4.86-2.654 5.498l-3.365.904c-7.63 2.05-15.13-3.66-15.13-11.52V413h20v47.06c0 1.85.415 3.58 1.149 5.117z" opacity="1" data-original="#eef7ff"></path><path d="M354.002 60a8 8 0 0 0 0-16h-19.581a8 8 0 0 0 0 16zM287.067 60a8 8 0 0 0 0-16H174.002a8 8 0 0 0 0 16zM153.197 243.608a7.998 7.998 0 0 0 11.048-2.438l38.927-60.969 49.883 74.259c3.321 4.945 10.706 4.647 13.619-.548l34.51-61.546 14.479 24.504c3.258 5.511 11.368 5.147 14.115-.639L385.23 99.43a8 8 0 0 0-14.454-6.862L321.78 195.771l-13.89-23.507c-3.176-5.374-10.886-5.156-13.866.157l-34.943 62.317-49.438-73.597c-3.211-4.78-10.283-4.7-13.383.156l-45.5 71.264a7.998 7.998 0 0 0 2.437 11.047zM157 331.002c1.826 0-13.087 4.284 218.308-65.341a8 8 0 0 0 5.355-9.966 7.998 7.998 0 0 0-9.966-5.355l-216 65A8 8 0 0 0 157 331.002z" fill="#000000" opacity="1" data-original="#000000"></path><path d="M396.002 421a8 8 0 0 0 8-8v-31.528c10.841-2.307 19-11.954 19-23.472V24c0-13.233-10.767-24-24-24H165.647a8 8 0 0 0 0 16h233.355c4.411 0 8 3.589 8 8v334c0 4.411-3.589 8-8 8h-295c-11.87 0-22.719 4.432-31 11.717V47c0-17.093 13.907-31 31-31v307a8 8 0 0 0 16 0V8a8 8 0 0 0-8-8h-8c-25.916 0-47 21.084-47 47v366c0 25.916 21.084 47 47 47h22.677c0 13.29 12.564 22.701 25.204 19.307l16.119-4.329c17.216 4.623 17.837 5.027 21.375 5.027 10.687 0 19.947-8.649 19.947-19.944 0-.1-9.616-.061 201.677-.061a8 8 0 0 0 0-16H209.325v-23zm-202.677 39.061c0 2.591-2.499 4.478-5.054 3.793l-18.194-4.886a8.001 8.001 0 0 0-4.15 0l-18.194 4.886c-2.564.686-5.054-1.209-5.054-3.793V452a8 8 0 0 0-8-8h-30.677c-17.093 0-31-13.907-31-31s13.907-31 31-31h284v23H123.39a8 8 0 0 0 0 16h69.936v39.061z" fill="#000000" opacity="1" data-original="#000000"></path></g></svg>