<svg xmlns="http://www.w3.org/2000/svg" version="1.1" xmlns:xlink="http://www.w3.org/1999/xlink" width="512" height="512" x="0" y="0" viewBox="0 0 480.006 480.006" style="enable-background:new 0 0 512 512" xml:space="preserve" class=""><g><path fill="#9cbcff" d="M399.003 8h-295c-21.54 0-39 17.46-39 39 0 51.53-.119 379.661.01 365.603C64.804 434.301 83.026 452 104.773 452h283.23a8 8 0 0 0 8-8v-70h3c8.84 0 16-7.16 16-16V24c0-8.84-7.16-16-16-16z" opacity="1" data-original="#9cbcff"></path><path fill="#80aaff" d="M415.003 140.594V358c0 8.837-7.163 16-16 16h-287V159.385c0-5.912 6.182-9.778 11.499-7.193 88.233 42.898 192.425 39.04 279.097-18.271 5.319-3.517 12.404.296 12.404 6.673z" opacity="1" data-original="#80aaff"></path><path fill="#80aaff" d="M112.003 8v366h-8c-21.54 0-39 17.46-39 39V47c0-21.54 17.46-39 39-39z" opacity="1" data-original="#80aaff"></path><path fill="#719efa" d="M112.003 154.27V374h-8c-21.54 0-39 17.46-39 39V162.475c0-2.259.961-4.407 2.625-5.935 6.944-6.375 16.207-10.269 26.375-10.269h10a7.999 7.999 0 0 1 8 7.999z" opacity="1" data-original="#719efa"></path><path fill="#ffebd2" d="M396.003 374v70a8 8 0 0 1-8 8h-283.23c-21.869 0-40.181-17.896-39.762-39.761C65.418 391.051 82.718 374 104.003 374z" opacity="1" data-original="#ffebd2"></path><path fill="#ffd9ad" d="M396.003 374v6a8 8 0 0 1-8 8h-260c-25.266 0-41.882 22.714-38.587 44.686 1.165 7.768-8.26 12.51-13.675 6.82C52.179 414.746 69.976 374 104.003 374z" opacity="1" data-original="#ffd9ad"></path><path fill="#ff6d7a" d="M201.323 413v47.06c0 7.86-7.5 13.57-15.13 11.52l-18.19-4.89-18.19 4.89c-7.63 2.05-15.13-3.66-15.13-11.52V413z" opacity="1" data-original="#ff6d7a"></path><path fill="#ff8c95" d="M155.832 465.177c1.06 2.222-.277 4.86-2.654 5.498l-3.365.904c-7.63 2.05-15.13-3.66-15.13-11.52V413h20v47.06c0 1.85.415 3.58 1.149 5.117z" opacity="1" data-original="#ff8c95"></path><path fill="#6e6f80" d="m282.153 139.54-14.63-4.54-102.58 91.07c-6.89 6.11-7.21 16.77-.69 23.28l8.09 8.09c6.51 6.51 17.16 6.2 23.28-.69l91.07-102.59z" opacity="1" data-original="#6e6f80" class=""></path><path fill="#585966" d="M253.877 181.011c3.486-.077 5.389 4.04 3.074 6.648l-61.328 69.091c-6.12 6.89-16.77 7.2-23.28.69l-8.09-8.09c-6.52-6.51-6.2-17.17.69-23.28l51.233-45.491a3.983 3.983 0 0 1 3.063-.982 276.34 276.34 0 0 0 34.638 1.414z" opacity="1" data-original="#585966"></path><path fill="#ffe773" d="m212.133 238.15-16.51 18.6c-6.12 6.89-16.77 7.2-23.28.69l-8.09-8.09c-6.52-6.51-6.2-17.17.69-23.28l18.59-16.51z" opacity="1" data-original="#ffe773"></path><path fill="#fff0a6" d="M257.503 131.88c-11.5-3.58-13.91-18.79-4.07-25.74l21.07-14.9-.33-25.81c-.16-12.04 13.57-19.03 23.22-11.83l20.68 15.44 24.44-8.29c11.41-3.87 22.3 7.02 18.43 18.42l-8.29 24.45 15.44 20.68c7.2 9.65.21 23.37-11.83 23.22l-25.81-.33-14.9 21.07c-6.96 9.83-22.17 7.42-25.74-4.08l-7.66-24.64z" opacity="1" data-original="#fff0a6"></path><path d="M334.422 313a8 8 0 0 0 0 16h19.581a8 8 0 0 0 0-16zM174.003 313a8 8 0 0 0 0 16h113.064a8 8 0 0 0 0-16zM166.686 263.099c9.757 9.755 25.757 9.282 34.918-1.038l66.872-75.326a8 8 0 1 0-11.964-10.623l-44.727 50.382-5.493-5.492a8 8 0 0 0-11.313.001 7.999 7.999 0 0 0 0 11.313l6.165 6.165-11.504 12.958c-2.994 3.371-8.308 3.677-11.639.347l-8.094-8.095c-3.247-3.246-3.115-8.568.346-11.64l99.214-88.078 6.295 1.957 6.413 20.63c5.551 17.856 29.148 21.537 39.909 6.321l12.474-17.64s21.8.278 21.899.278c18.487 0 29.151-21.123 18.046-36.003l-12.921-17.315 6.938-20.459c5.986-17.651-10.866-34.574-28.571-28.571l-20.459 6.938-17.314-12.921c-14.96-11.166-36.24-.317-36.002 18.344l.276 21.602-17.64 12.474a8 8 0 1 0 9.238 13.062l21.072-14.902a7.998 7.998 0 0 0 3.38-6.634l-.33-25.808c-.069-5.421 6.087-8.56 10.434-5.316l20.685 15.437a8.003 8.003 0 0 0 7.354 1.165l24.442-8.289c5.146-1.743 10.019 3.154 8.281 8.28l-8.289 24.442a7.999 7.999 0 0 0 1.165 7.354l15.436 20.687c3.261 4.369.073 10.477-5.316 10.434l-25.911-.331a8 8 0 0 0-6.531 3.381l-14.902 21.073c-3.131 4.428-9.957 3.345-11.566-1.833l-7.662-24.646a8 8 0 0 0-5.265-5.265c-15.552-4.836-15.166-4.828-16.663-4.892a8.04 8.04 0 0 0-5.644 2.004l-102.59 91.074c-10.32 9.16-10.795 25.162-1.038 34.918z" fill="#000000" opacity="1" data-original="#000000"></path><path d="M396.003 421a8 8 0 0 0 8-8v-31.528c10.841-2.307 19-11.953 19-23.472V24c0-13.233-10.767-24-24-24H165.648a8 8 0 0 0 0 16h233.355c4.411 0 8 3.589 8 8v334c0 4.411-3.589 8-8 8h-295c-11.87 0-22.719 4.432-31 11.717V47c0-17.094 13.907-31 31-31v307a8 8 0 0 0 16 0V8a8 8 0 0 0-8-8h-8c-25.916 0-47 21.084-47 47v366c0 25.916 21.084 47 47 47h22.677c0 13.292 12.563 22.699 25.204 19.308l16.119-4.33c17.218 4.625 17.84 5.028 21.375 5.028 10.686 0 19.948-8.649 19.948-19.944 0-.1-9.616-.062 201.677-.062a8 8 0 0 0 0-16H209.326v-23zm-202.677 39.062c0 2.589-2.499 4.482-5.054 3.793l-18.194-4.887a8.001 8.001 0 0 0-4.15 0l-18.193 4.887c-2.569.687-5.054-1.213-5.054-3.793V452a8 8 0 0 0-8-8h-30.677c-17.093 0-31-13.906-31-31s13.907-31 31-31h284v23H123.39a8 8 0 0 0 0 16h69.936z" fill="#000000" opacity="1" data-original="#000000"></path></g></svg>