<svg xmlns="http://www.w3.org/2000/svg" version="1.1" xmlns:xlink="http://www.w3.org/1999/xlink" width="512" height="512" x="0" y="0" viewBox="0 0 480.005 480.005" style="enable-background:new 0 0 512 512" xml:space="preserve" class=""><g><path fill="#ff8c95" d="M399.002 8h-295c-21.54 0-39 17.46-39 39 0 51.53-.119 379.661.01 365.603C64.804 434.301 83.026 452 104.773 452h283.23a8 8 0 0 0 8-8v-70h3c8.84 0 16-7.16 16-16V24c-.001-8.84-7.16-16-16.001-16z" opacity="1" data-original="#ff8c95"></path><path fill="#ff6d7a" d="M415.002 140.594V358c0 8.837-7.163 16-16 16h-287V159.385c0-5.912 6.182-9.778 11.499-7.193 88.233 42.898 192.425 39.04 279.097-18.271 5.319-3.517 12.404.296 12.404 6.673z" opacity="1" data-original="#ff6d7a"></path><path fill="#fe4f60" d="M112.002 8v366h-8c-21.54 0-39 17.46-39 39V47c0-21.54 17.46-39 39-39z" opacity="1" data-original="#fe4f60"></path><path fill="#e84857" d="M112.002 154.27V374h-8c-21.54 0-39 17.46-39 39V162.475c0-2.259.961-4.407 2.625-5.935 6.944-6.375 16.207-10.269 26.375-10.269h10a7.998 7.998 0 0 1 8 7.999z" opacity="1" data-original="#e84857"></path><path fill="#ffebd2" d="M396.002 374v70a8 8 0 0 1-8 8h-283.23c-21.869 0-40.181-17.896-39.762-39.761C65.418 391.051 82.717 374 104.002 374z" opacity="1" data-original="#ffebd2"></path><path fill="#ffd9ad" d="M396.002 374v6a8 8 0 0 1-8 8h-260c-25.266 0-41.882 22.714-38.587 44.686 1.165 7.768-8.26 12.51-13.675 6.82C52.179 414.746 69.976 374 104.002 374z" opacity="1" data-original="#ffd9ad"></path><path fill="#80aaff" d="M201.322 413v47.06c0 7.86-7.5 13.57-15.13 11.52l-18.19-4.89-18.19 4.89c-7.63 2.05-15.13-3.66-15.13-11.52V413z" opacity="1" data-original="#80aaff"></path><path fill="#9cbcff" d="M155.831 465.177c1.06 2.222-.277 4.86-2.654 5.498l-3.365.904c-7.63 2.05-15.13-3.66-15.13-11.52V413h20v47.06c0 1.85.415 3.58 1.149 5.117z" opacity="1" data-original="#9cbcff"></path><path fill="#eef7ff" d="M369.002 69v146a8 8 0 0 1-8 8h-194a8 8 0 0 1-8-8V69a8 8 0 0 1 8-8h194a8 8 0 0 1 8 8z" opacity="1" data-original="#eef7ff"></path><path fill="#cbe3fa" d="M369.002 165.55V215a8 8 0 0 1-8 8h-194a8 8 0 0 1-8-8v-37.537c0-5.322 5.102-9.165 10.213-7.68 62.726 18.234 128.671 14.407 188.586-11.556 5.292-2.293 11.201 1.555 11.201 7.323z" opacity="1" data-original="#cbe3fa"></path><path d="M334.421 295a8 8 0 0 0 0 16h19.581a8 8 0 0 0 0-16zM166.002 303a8 8 0 0 0 8 8h113.064a8 8 0 0 0 0-16H174.002a8 8 0 0 0-8 8zM159.002 231a8 8 0 0 0 8-8V69h194v146H222.421a8 8 0 0 0 0 16h146.581a8 8 0 0 0 8-8V61a8 8 0 0 0-8-8h-210a8 8 0 0 0-8 8v162a8 8 0 0 0 8 8z" fill="#000000" opacity="1" data-original="#000000"></path><path d="M346.164 102.613a8 8 0 0 0-8-8H230.002a8.001 8.001 0 0 0-7.645 5.64l-18.855 61.082-7.219-6.344a8 8 0 0 0-11.291.729 8 8 0 0 0 .729 11.29l16.5 14.5c4.352 3.822 11.213 1.893 12.926-3.649l20.759-67.247h102.258a8.002 8.002 0 0 0 8-8.001z" fill="#000000" opacity="1" data-original="#000000"></path><path d="M287.66 139.343a8 8 0 0 0-11.314 0l-9.343 9.343-9.343-9.343a8 8 0 0 0-11.314 11.313l9.343 9.343-9.343 9.343a8 8 0 1 0 11.314 11.313l9.343-9.343 9.343 9.343a8 8 0 1 0 11.314-11.313L278.316 160l9.343-9.343a8 8 0 0 0 .001-11.314zM324.224 185a8 8 0 0 0 8-8v-43.778c0-4.655-3.967-8.335-8.614-7.977l-10.835.835a8.001 8.001 0 0 0-7.362 8.591c.34 4.405 4.175 7.707 8.591 7.362l2.221-.171V177a7.999 7.999 0 0 0 7.999 8z" fill="#000000" opacity="1" data-original="#000000"></path><path d="M396.002 421a8 8 0 0 0 8-8v-31.528c10.841-2.307 19-11.954 19-23.472V24c0-13.233-10.767-24-24-24H165.648a8 8 0 0 0 0 16h233.354c4.411 0 8 3.589 8 8v334c0 4.411-3.589 8-8 8h-295c-11.87 0-22.719 4.432-31 11.717V47c0-17.093 13.906-31 31-31v307a8 8 0 0 0 16 0V8a8 8 0 0 0-8-8h-8c-25.916 0-47 21.084-47 47v366c0 25.916 21.084 47 47 47h22.678c0 13.29 12.563 22.702 25.204 19.307l16.118-4.329c17.178 4.613 17.834 5.027 21.375 5.027 10.686 0 19.947-8.649 19.947-19.944 0-.1-9.616-.061 201.678-.061a8 8 0 0 0 0-16H209.325v-23zm-202.677 39.061c0 2.59-2.497 4.479-5.054 3.793l-18.193-4.886a8.001 8.001 0 0 0-4.15 0l-18.193 4.886c-2.551.686-5.054-1.2-5.054-3.793V452a8 8 0 0 0-8-8h-30.678c-17.094 0-31-13.907-31-31s13.906-31 31-31h284v23H123.389a8 8 0 0 0 0 16h69.936z" fill="#000000" opacity="1" data-original="#000000"></path></g></svg>