<svg xmlns="http://www.w3.org/2000/svg" version="1.1" xmlns:xlink="http://www.w3.org/1999/xlink" width="512" height="512" x="0" y="0" viewBox="0 0 480.006 480.006" style="enable-background:new 0 0 512 512" xml:space="preserve" class=""><g><path fill="#ff8c95" d="M399.003 8h-295c-21.54 0-39 17.46-39 39 0 51.53-.119 379.661.01 365.603C64.804 434.301 83.026 452 104.773 452h283.23a8 8 0 0 0 8-8v-70h3c8.84 0 16-7.16 16-16V24c0-8.84-7.16-16-16-16z" opacity="1" data-original="#ff8c95"></path><path fill="#ff6d7a" d="M415.003 140.594V358c0 8.837-7.163 16-16 16h-287V159.385c0-5.912 6.182-9.778 11.499-7.193 88.233 42.898 192.425 39.04 279.097-18.271 5.319-3.517 12.404.296 12.404 6.673z" opacity="1" data-original="#ff6d7a"></path><path fill="#fe4f60" d="M112.003 8v366h-8c-21.54 0-39 17.46-39 39V47c0-21.54 17.46-39 39-39z" opacity="1" data-original="#fe4f60"></path><path fill="#e84857" d="M112.003 154.27V374h-8c-21.54 0-39 17.46-39 39V162.475c0-2.259.961-4.407 2.625-5.935 6.944-6.375 16.207-10.269 26.375-10.269h10a7.999 7.999 0 0 1 8 7.999z" opacity="1" data-original="#e84857"></path><path fill="#ffebd2" d="M396.003 374v70a8 8 0 0 1-8 8h-283.23c-21.869 0-40.181-17.896-39.762-39.761C65.418 391.051 82.718 374 104.003 374z" opacity="1" data-original="#ffebd2"></path><path fill="#ffd9ad" d="M396.003 374v6a8 8 0 0 1-8 8h-260c-25.266 0-41.882 22.714-38.587 44.686 1.165 7.768-8.26 12.51-13.675 6.82C52.179 414.746 69.976 374 104.003 374z" opacity="1" data-original="#ffd9ad"></path><path fill="#585966" d="M201.323 413v47.06c0 7.86-7.5 13.57-15.13 11.52l-18.19-4.89-18.19 4.89c-7.63 2.05-15.13-3.66-15.13-11.52V413z" opacity="1" data-original="#585966"></path><path fill="#6e6f80" d="M155.832 465.177c1.06 2.222-.277 4.86-2.654 5.498l-3.365.904c-7.63 2.05-15.13-3.66-15.13-11.52V413h20v47.06c0 1.85.415 3.58 1.149 5.117z" opacity="1" data-original="#6e6f80"></path><path fill="#eef7ff" d="M361.783 178.06c-22.61-54-84.72-79.45-138.72-56.84-27 11.31-39.72 42.36-28.42 69.36 11.31 27 42.36 39.73 69.36 28.42s58.05 1.42 69.36 28.42c11.3 27-1.42 58.05-28.42 69.36 54-22.61 79.45-84.72 56.84-138.72z" opacity="1" data-original="#eef7ff"></path><path fill="#cbe3fa" d="M304.943 316.78c27-11.31 39.72-42.36 28.42-69.36-11.31-27-42.36-39.73-69.36-28.42-28.918 12.113-60.753-3.478-70.493-31.261-1.985-5.662 2.935-11.397 8.854-10.416 48.382 8.019 97.838 3.182 143.876-14.38 3.676-1.402 7.851.025 9.802 3.442 31.702 55.549 7.417 125.894-51.099 150.395z" opacity="1" data-original="#cbe3fa"></path><path fill="#6e6f80" d="M333.363 247.42c-11.31-27-42.36-39.73-69.36-28.42s-58.05-1.42-69.36-28.42c-11.3-27 1.42-58.05 28.42-69.36-54 22.61-79.45 84.72-56.84 138.72s84.72 79.45 138.72 56.84c27-11.31 39.72-42.36 28.42-69.36z" opacity="1" data-original="#6e6f80"></path><path fill="#585966" d="M304.943 316.78c-54 22.61-116.11-2.84-138.72-56.84-11.693-27.933-10.536-58.036.794-83.715 1.587-3.596 5.578-5.454 9.379-4.455 2.934.771 5.941 1.512 9.022 2.214 3.117.711 5.482 3.216 6.091 6.355 6.266 32.329 41.117 51.805 72.495 38.661 27-11.31 58.05 1.42 69.36 28.42 11.299 27-1.421 58.05-28.421 69.36z" opacity="1" data-original="#585966"></path><path d="M264.155 333c80.993-.005 136.411-83.016 105.003-158.029-24.278-57.98-91.2-85.402-149.184-61.125-31.025 12.991-45.698 48.801-32.708 79.826 13.054 31.179 48.94 45.639 79.826 32.707 22.886-9.586 49.305 1.241 58.888 24.129a8.003 8.003 0 0 0 7.383 4.912c5.67 0 9.592-5.799 7.376-11.092-12.991-31.026-48.799-45.698-79.826-32.707-22.888 9.582-49.305-1.241-58.888-24.129s1.241-49.305 24.128-58.889c49.844-20.867 107.375 2.703 128.245 52.547 20.87 49.845-2.702 107.375-52.547 128.246-49.844 20.869-107.375-2.703-128.245-52.547-8.692-20.761-10.023-43.146-3.848-64.736a8 8 0 0 0-15.383-4.401C133.771 259.753 187.653 333.007 264.155 333z" fill="#000000" opacity="1" data-original="#000000"></path><path d="M228.728 164.046c-3.353 8.182.555 17.518 8.739 20.872 13.07 5.352 26.351-7.79 20.824-20.985-5.457-13.038-24.147-13.105-29.563.113zM278.406 282.693c13.073 5.352 26.35-7.793 20.824-20.985-3.414-8.155-12.779-11.995-20.937-8.579-13.212 5.531-12.94 24.217.113 29.564zM354.003 70a8 8 0 0 0 0-16h-19.581a8 8 0 0 0 0 16zM174.003 70h113.064a8 8 0 0 0 0-16H174.003a8 8 0 0 0 0 16z" fill="#000000" opacity="1" data-original="#000000"></path><path d="M396.003 421a8 8 0 0 0 8-8v-31.528c10.841-2.307 19-11.953 19-23.472V24c0-13.233-10.767-24-24-24H165.648a8 8 0 0 0 0 16h233.355c4.411 0 8 3.589 8 8v334c0 4.411-3.589 8-8 8h-295c-11.87 0-22.719 4.432-31 11.717V47c0-17.094 13.907-31 31-31v307a8 8 0 0 0 16 0V8a8 8 0 0 0-8-8h-8c-25.916 0-47 21.084-47 47v366c0 25.916 21.084 47 47 47h22.677c0 13.268 12.539 22.705 25.204 19.308l16.119-4.33c17.218 4.625 17.84 5.028 21.375 5.028 10.686 0 19.948-8.649 19.948-19.944 0-.1-9.616-.062 201.677-.062a8 8 0 0 0 0-16H209.326v-23zm-202.677 39.062c0 2.59-2.501 4.482-5.054 3.793l-18.194-4.887a8.001 8.001 0 0 0-4.15 0l-18.193 4.887c-2.561.692-5.054-1.213-5.054-3.793V452a8 8 0 0 0-8-8h-30.677c-17.093 0-31-13.906-31-31s13.907-31 31-31h284v23H123.39a8 8 0 0 0 0 16h69.936z" fill="#000000" opacity="1" data-original="#000000"></path></g></svg>