<svg xmlns="http://www.w3.org/2000/svg" version="1.1" xmlns:xlink="http://www.w3.org/1999/xlink" width="512" height="512" x="0" y="0" viewBox="0 0 480.005 480.005" style="enable-background:new 0 0 512 512" xml:space="preserve" class=""><g><path fill="#eef7ff" d="M399.002 8h-295c-21.54 0-39 17.46-39 39 0 51.53-.119 379.661.01 365.603C64.804 434.301 83.026 452 104.773 452h283.23a8 8 0 0 0 8-8v-70h3c8.84 0 16-7.16 16-16V24c-.001-8.84-7.16-16-16.001-16z" opacity="1" data-original="#eef7ff" class=""></path><path fill="#cbe3fa" d="M415.002 140.594V358c0 8.837-7.163 16-16 16h-287V159.385c0-5.912 6.182-9.778 11.499-7.193 88.233 42.898 192.425 39.04 279.097-18.271 5.319-3.517 12.404.296 12.404 6.673zM112.002 8v366h-8c-21.54 0-39 17.46-39 39V47c0-21.54 17.46-39 39-39z" opacity="1" data-original="#cbe3fa" class=""></path><path fill="#b5d5f5" d="M112.002 154.27V374h-8c-21.54 0-39 17.46-39 39V162.475c0-2.259.961-4.407 2.625-5.935 6.944-6.375 16.207-10.269 26.375-10.269h10a7.998 7.998 0 0 1 8 7.999z" opacity="1" data-original="#b5d5f5"></path><path fill="#ffebd2" d="M396.002 374v70a8 8 0 0 1-8 8h-283.23c-21.869 0-40.181-17.896-39.762-39.761C65.418 391.051 82.717 374 104.002 374z" opacity="1" data-original="#ffebd2"></path><path fill="#ffd9ad" d="M396.002 374v6a8 8 0 0 1-8 8h-260c-25.266 0-41.882 22.714-38.587 44.686 1.165 7.768-8.26 12.51-13.675 6.82C52.179 414.746 69.976 374 104.002 374z" opacity="1" data-original="#ffd9ad"></path><path fill="#9cbcff" d="M201.322 413v47.06c0 7.86-7.5 13.57-15.13 11.52l-18.19-4.89-18.19 4.89c-7.63 2.05-15.13-3.66-15.13-11.52V413z" opacity="1" data-original="#9cbcff"></path><path fill="#c2d6ff" d="M155.831 465.177c1.06 2.222-.277 4.86-2.654 5.498l-3.365.904c-7.63 2.05-15.13-3.66-15.13-11.52V413h20v47.06c0 1.85.415 3.58 1.149 5.117zM264.002 47c-31.48 23.87-47.18 67.44-47.18 111h-63.82c0-61.3 49.7-111 111-111z" opacity="1" data-original="#c2d6ff"></path><path fill="#719efa" d="M311.182 158h63.82c0 61.3-49.7 111-111 111 31.42-23.83 47.17-67.41 47.18-111z" opacity="1" data-original="#719efa" class=""></path><path fill="#80aaff" d="M375.002 158h-63.82c0-43.56-15.7-87.13-47.18-111 61.3 0 111 49.7 111 111z" opacity="1" data-original="#80aaff"></path><path fill="#9cbcff" d="M264.002 47c31.48 23.87 47.18 67.44 47.18 111h-94.36c0-43.56 15.7-87.13 47.18-111z" opacity="1" data-original="#9cbcff"></path><path fill="#80aaff" d="M216.822 158h94.36c-.01 43.59-15.76 87.17-47.18 111-31.42-23.83-47.17-67.41-47.18-111z" opacity="1" data-original="#80aaff"></path><path fill="#9cbcff" d="M216.822 158c.01 43.59 15.76 87.17 47.18 111-61.3 0-111-49.7-111-111z" opacity="1" data-original="#9cbcff"></path><path d="M396.002 421a8 8 0 0 0 8-8v-31.528c10.841-2.307 19-11.954 19-23.472V24c0-13.233-10.767-24-24-24H165.648a8 8 0 0 0 0 16h233.354c4.411 0 8 3.589 8 8v334c0 4.411-3.589 8-8 8h-295c-11.87 0-22.719 4.432-31 11.717V47c0-17.093 13.906-31 31-31v307a8 8 0 0 0 16 0V8a8 8 0 0 0-8-8h-8c-25.916 0-47 21.084-47 47v366c0 25.916 21.084 47 47 47h22.678c0 13.29 12.564 22.703 25.204 19.307l16.118-4.329c17.178 4.613 17.834 5.027 21.375 5.027 10.686 0 19.947-8.649 19.947-19.944 0-.1-9.616-.061 201.678-.061a8 8 0 0 0 0-16H209.325v-23zm-202.677 39.061c0 2.585-2.491 4.48-5.054 3.793l-18.193-4.886a8.001 8.001 0 0 0-4.15 0l-18.193 4.886c-2.562.687-5.054-1.21-5.054-3.793V452a8 8 0 0 0-8-8h-30.678c-17.094 0-31-13.907-31-31s13.906-31 31-31h284v23H123.389a8 8 0 0 0 0 16h69.936z" fill="#000000" opacity="1" data-original="#000000"></path><path d="M334.421 309a8 8 0 0 0 0 16h19.581a8 8 0 0 0 0-16zM174.002 309a8 8 0 0 0 0 16h113.064a8 8 0 0 0 0-16zM263.991 277.001c65.615.003 119.011-53.385 119.011-119.001 0-65.617-53.384-119.001-119.001-119.001-50.361 0-94.157 31.396-111.365 76.977a7.999 7.999 0 0 0 4.659 10.31c4.131 1.563 8.749-.524 10.31-4.659 14.726-39.008 52.156-65.471 93.697-66.576 25.055 20.351 39.782 56.733 41.691 94.948h-77.992c1.004-21.844 6.158-43.007 15.11-60.93a8 8 0 0 0-3.583-10.731 7.999 7.999 0 0 0-10.731 3.582c-10.028 20.078-15.759 43.746-16.792 68.079h-56.002a8 8 0 0 0-8 8c-.002 65.613 53.378 118.999 118.988 119.002zM161.31 166h47.689c1.389 32.673 11.374 67.028 32.644 92.55-43.554-9.679-76.818-47.009-80.333-92.55zM286.348 57.448c46.086 10.235 80.654 51.43 80.654 100.552 0 55.887-44.741 101.52-100.286 102.965-27.405-22.171-40.044-59.629-41.705-94.965h78.025c-.892 20.15-5.396 40.262-13.879 58.29a7.999 7.999 0 0 0 3.832 10.645c4.021 1.891 8.775.143 10.645-3.833 9.135-19.414 14.36-41.986 15.354-65.103h18.013a8 8 0 0 0 0-16h-18.005c-1.386-33.14-11.588-67.279-32.648-92.551z" fill="#000000" opacity="1" data-original="#000000"></path></g></svg>