<svg xmlns="http://www.w3.org/2000/svg" version="1.1" xmlns:xlink="http://www.w3.org/1999/xlink" width="512" height="512" x="0" y="0" viewBox="0 0 480.006 480.006" style="enable-background:new 0 0 512 512" xml:space="preserve" class=""><g><path fill="#eef7ff" d="M399.003 8h-295c-21.54 0-39 17.46-39 39 0 51.53-.119 379.661.01 365.603C64.804 434.301 83.026 452 104.773 452h283.23a8 8 0 0 0 8-8v-70h3c8.84 0 16-7.16 16-16V24c0-8.84-7.16-16-16-16z" opacity="1" data-original="#eef7ff"></path><path fill="#cbe3fa" d="M415.003 140.594V358c0 8.837-7.163 16-16 16h-287V159.385c0-5.912 6.182-9.778 11.499-7.193 88.233 42.898 192.425 39.04 279.097-18.271 5.319-3.517 12.404.296 12.404 6.673z" opacity="1" data-original="#cbe3fa"></path><path fill="#cbe3fa" d="M112.003 8v366h-8c-21.54 0-39 17.46-39 39V47c0-21.54 17.46-39 39-39z" opacity="1" data-original="#cbe3fa"></path><path fill="#b5d5f5" d="M112.003 154.27V374h-8c-21.54 0-39 17.46-39 39V162.475c0-2.259.961-4.407 2.625-5.935 6.944-6.375 16.207-10.269 26.375-10.269h10a7.999 7.999 0 0 1 8 7.999z" opacity="1" data-original="#b5d5f5"></path><path fill="#ffebd2" d="M396.003 374v70a8 8 0 0 1-8 8h-283.23c-21.869 0-40.181-17.896-39.762-39.761C65.418 391.051 82.718 374 104.003 374z" opacity="1" data-original="#ffebd2"></path><path fill="#ffd9ad" d="M396.003 374v6a8 8 0 0 1-8 8h-260c-25.266 0-41.882 22.714-38.587 44.686 1.165 7.768-8.26 12.51-13.675 6.82C52.179 414.746 69.976 374 104.003 374z" opacity="1" data-original="#ffd9ad"></path><path fill="#ff6d7a" d="M201.323 413v47.06c0 7.86-7.5 13.57-15.13 11.52l-18.19-4.89-18.19 4.89c-7.63 2.05-15.13-3.66-15.13-11.52V413z" opacity="1" data-original="#ff6d7a"></path><path fill="#ff8c95" d="M155.832 465.177c1.06 2.222-.277 4.86-2.654 5.498l-3.365.904c-7.63 2.05-15.13-3.66-15.13-11.52V413h20v47.06c0 1.85.415 3.58 1.149 5.117z" opacity="1" data-original="#ff8c95"></path><g fill="#ff6d7a"><path d="M358.003 131.21v32.75l-124.78 33.27c-.342 0-.22 2.701-.22-34.68 0-9.04 6.08-16.96 14.82-19.29l93.44-24.91c8.45-2.26 16.74 4.11 16.74 12.86zM358.003 262c.015 17.8-14.334 31.73-31.61 31.73-17.46 0-31.61-14.16-31.61-31.61 0-17.46 14.15-31.62 31.61-31.62 17.42 0 31.595 14.1 31.61 31.5zM233.003 291.63c2.196 19.292-12.806 35.37-31.39 35.37-17.46 0-31.61-14.15-31.61-31.61s14.15-31.61 31.61-31.61c16.19 0 29.53 12.16 31.39 27.85z" fill="#ff6d7a" opacity="1" data-original="#ff6d7a"></path></g><path d="M201.613 335c21.841 0 39.611-17.77 39.611-39.611a8.01 8.01 0 0 0-.352-2.351c.204-1.147.131 7.862.131-130.484a11.982 11.982 0 0 1 8.881-11.562l93.441-24.917c3.373-.893 6.677 1.63 6.677 5.131v26.604l-82.255 21.935a7.998 7.998 0 0 0-5.668 9.791 8.004 8.004 0 0 0 7.725 5.94c1.527 0-3.848 1.305 80.199-21.108 0 1.496-.002 86.973.003 87.689-.085 13.591-10.998 23.668-23.613 23.668-13.019 0-23.611-10.592-23.611-23.61 0-13.02 10.592-23.611 23.611-23.611a8 8 0 0 0 0-16c-21.841 0-39.611 17.77-39.611 39.611s17.77 39.61 39.611 39.61c21.977 0 39.743-18.019 39.607-39.668.004-.711.003-129.057.003-130.852 0-14.003-13.268-24.204-26.801-20.59l-93.441 24.917c-12.222 3.26-20.758 14.371-20.758 27.021 0 138.011-.171 129.724.352 131.427a8.067 8.067 0 0 0-.131 1.408c0 13.02-10.592 23.611-23.611 23.611s-23.61-10.592-23.61-23.611 10.591-23.609 23.61-23.609a8 8 0 0 0 0-16c-21.841 0-39.61 17.769-39.61 39.609 0 21.842 17.769 39.612 39.61 39.612zM354.003 70a8 8 0 0 0 0-16h-19.581a8 8 0 0 0 0 16zM287.067 70a8 8 0 0 0 0-16H174.003a8 8 0 0 0 0 16z" fill="#000000" opacity="1" data-original="#000000"></path><path d="M396.003 421a8 8 0 0 0 8-8v-31.528c10.841-2.307 19-11.953 19-23.472V24c0-13.233-10.767-24-24-24H165.648a8 8 0 0 0 0 16h233.355c4.411 0 8 3.589 8 8v334c0 4.411-3.589 8-8 8h-295c-11.87 0-22.719 4.432-31 11.717V47c0-17.094 13.907-31 31-31v307a8 8 0 0 0 16 0V8a8 8 0 0 0-8-8h-8c-25.916 0-47 21.084-47 47v366c0 25.916 21.084 47 47 47h22.677c0 13.268 12.539 22.705 25.204 19.308l16.119-4.33c17.218 4.625 17.84 5.028 21.375 5.028 10.686 0 19.948-8.649 19.948-19.944 0-.1-9.616-.062 201.677-.062a8 8 0 0 0 0-16H209.326v-23zm-202.677 39.062c0 2.59-2.501 4.482-5.054 3.793l-18.194-4.887a8.001 8.001 0 0 0-4.15 0l-18.193 4.887c-2.559.685-5.054-1.204-5.054-3.793V452a8 8 0 0 0-8-8h-30.677c-17.093 0-31-13.906-31-31s13.907-31 31-31h284v23H123.39a8 8 0 0 0 0 16h69.936z" fill="#000000" opacity="1" data-original="#000000"></path></g></svg>