<svg xmlns="http://www.w3.org/2000/svg" version="1.1" xmlns:xlink="http://www.w3.org/1999/xlink" width="512" height="512" x="0" y="0" viewBox="0 0 480.006 480.006" style="enable-background:new 0 0 512 512" xml:space="preserve" class=""><g><path fill="#9cbcff" d="M399.003 8h-295c-21.54 0-39 17.46-39 39 0 51.53-.119 379.661.01 365.603C64.804 434.301 83.026 452 104.773 452h283.23a8 8 0 0 0 8-8v-70h3c8.84 0 16-7.16 16-16V24c0-8.84-7.16-16-16-16z" opacity="1" data-original="#9cbcff"></path><path fill="#80aaff" d="M415.003 140.594V358c0 8.837-7.163 16-16 16h-287V159.385c0-5.912 6.182-9.778 11.499-7.193 88.233 42.898 192.425 39.04 279.097-18.271 5.319-3.517 12.404.296 12.404 6.673z" opacity="1" data-original="#80aaff"></path><path fill="#80aaff" d="M112.003 8v366h-8c-21.54 0-39 17.46-39 39V47c0-21.54 17.46-39 39-39z" opacity="1" data-original="#80aaff"></path><path fill="#719efa" d="M112.003 154.27V374h-8c-21.54 0-39 17.46-39 39V162.475c0-2.259.961-4.407 2.625-5.935 6.944-6.375 16.207-10.269 26.375-10.269h10a7.999 7.999 0 0 1 8 7.999z" opacity="1" data-original="#719efa"></path><path fill="#ffebd2" d="M396.003 374v70a8 8 0 0 1-8 8h-283.23c-21.869 0-40.181-17.896-39.762-39.761C65.418 391.051 82.718 374 104.003 374z" opacity="1" data-original="#ffebd2"></path><path fill="#ffd9ad" d="M396.003 374v6a8 8 0 0 1-8 8h-260c-25.266 0-41.882 22.714-38.587 44.686 1.165 7.768-8.26 12.51-13.675 6.82C52.179 414.746 69.976 374 104.003 374z" opacity="1" data-original="#ffd9ad"></path><path fill="#ffe773" d="M201.323 413v47.06c0 7.86-7.5 13.57-15.13 11.52l-18.19-4.89-18.19 4.89c-7.63 2.05-15.13-3.66-15.13-11.52V413z" opacity="1" data-original="#ffe773"></path><path fill="#fff0a6" d="M155.832 465.177c1.06 2.222-.277 4.86-2.654 5.498l-3.365.904c-7.63 2.05-15.13-3.66-15.13-11.52V413h20v47.06c0 1.85.415 3.58 1.149 5.117z" opacity="1" data-original="#fff0a6"></path><path fill="#eef7ff" d="M295.203 209.3c35.449 44.998 35.199 44.28 35.1 44.38-56.29 16-58.1-33.98-104.47-38.1l4.97-6.28c4-5.1 6.2-11.3 6.2-17.8V113h52v78.5c0 6.5 2.189 12.709 6.2 17.8z" opacity="1" data-original="#eef7ff"></path><path fill="#cbe3fa" d="M330.303 253.68c-56.29 16-58.1-33.98-104.47-38.1l4.97-6.28c4-5.1 6.2-11.3 6.2-17.8v-2.439c0-4.466 3.657-8.038 8.122-7.995a276.707 276.707 0 0 0 34.999-1.879c4.733-.556 8.878 3.184 8.878 7.95v4.364c0 6.5 2.189 12.709 6.2 17.8 35.451 44.996 35.2 44.279 35.101 44.379z" opacity="1" data-original="#cbe3fa"></path><path fill="#daffbf" d="M346.803 274.5c14.7 18.5 1.7 46.5-22.4 46.5h-122.7c-24.4 0-37.1-28.1-22.5-46.5l46.63-58.92c46.37 4.12 48.18 54.1 104.47 38.1l.01-.01z" opacity="1" data-original="#daffbf"></path><path d="M354.003 60a8 8 0 0 0 0-16h-20a8 8 0 0 0 0 16zM287.003 60a8 8 0 0 0 0-16h-113a8 8 0 0 0 0 16zM201.703 329h122.7c30.736 0 47.556-35.701 28.673-59.465l-16.485-20.831a7.996 7.996 0 0 0-8.579-2.69c-30.495 8.628-41.306-3.949-58.425-18.46a8 8 0 1 0-10.345 12.205c16.895 14.322 32.622 31.049 68.028 22.948l13.272 16.77C350.945 292.572 342.011 313 324.403 313h-122.7c-17.766 0-26.65-20.401-16.227-33.535l51.621-65.228c5.172-6.594 7.906-14.456 7.906-22.737V121h36v70.5c0 8.281 2.734 16.144 7.927 22.765l10.42 13.166a8 8 0 0 0 12.546-9.929l-10.398-13.139c-2.94-3.749-4.495-8.196-4.495-12.862V121h6a8 8 0 0 0 0-16h-80a8 8 0 0 0 0 16h6v70.5c0 4.666-1.554 9.113-4.473 12.835l-51.594 65.192C154.094 293.274 170.755 329 201.703 329z" fill="#000000" opacity="1" data-original="#000000"></path><path d="M396.003 421a8 8 0 0 0 8-8v-31.528c10.841-2.307 19-11.953 19-23.472V24c0-13.233-10.767-24-24-24H165.648a8 8 0 0 0 0 16h233.355c4.411 0 8 3.589 8 8v334c0 4.411-3.589 8-8 8h-295c-11.87 0-22.719 4.432-31 11.717V47c0-17.094 13.907-31 31-31v307a8 8 0 0 0 16 0V8a8 8 0 0 0-8-8h-8c-25.916 0-47 21.084-47 47v366c0 25.916 21.084 47 47 47h22.677c0 13.27 12.538 22.704 25.204 19.308l16.119-4.33c17.218 4.625 17.84 5.028 21.375 5.028 10.686 0 19.948-8.649 19.948-19.944 0-.1-9.616-.062 201.677-.062a8 8 0 0 0 0-16H209.326v-23zm-202.677 39.062c0 2.589-2.497 4.481-5.054 3.793l-18.194-4.887a8.001 8.001 0 0 0-4.15 0l-18.193 4.887c-2.572.69-5.054-1.218-5.054-3.793V452a8 8 0 0 0-8-8h-30.677c-17.093 0-31-13.906-31-31s13.907-31 31-31h284v23H123.39a8 8 0 0 0 0 16h69.936z" fill="#000000" opacity="1" data-original="#000000"></path></g></svg>