<svg xmlns="http://www.w3.org/2000/svg" version="1.1" xmlns:xlink="http://www.w3.org/1999/xlink" width="512" height="512" x="0" y="0" viewBox="0 0 480.005 480.005" style="enable-background:new 0 0 512 512" xml:space="preserve" class=""><g><path fill="#e0b7a3" d="M399.002 8h-295c-21.54 0-39 17.46-39 39 0 51.53-.119 379.661.01 365.603C64.804 434.301 83.026 452 104.773 452h283.23a8 8 0 0 0 8-8v-70h3c8.84 0 16-7.16 16-16V24c-.001-8.84-7.16-16-16.001-16z" opacity="1" data-original="#e0b7a3"></path><path fill="#c79a83" d="M415.002 140.594V358c0 8.837-7.163 16-16 16h-287V159.385c0-5.912 6.182-9.778 11.499-7.193 88.233 42.898 192.425 39.04 279.097-18.271 5.319-3.517 12.404.296 12.404 6.673zM112.002 8v366h-8c-21.54 0-39 17.46-39 39V47c0-21.54 17.46-39 39-39z" opacity="1" data-original="#c79a83"></path><path fill="#a07765" d="M112.002 154.27V374h-8c-21.54 0-39 17.46-39 39V162.475c0-2.259.961-4.407 2.625-5.935 6.944-6.375 16.207-10.269 26.375-10.269h10a7.998 7.998 0 0 1 8 7.999z" opacity="1" data-original="#a07765"></path><path fill="#ffebd2" d="M396.002 374v70a8 8 0 0 1-8 8h-283.23c-21.869 0-40.181-17.896-39.762-39.761C65.418 391.051 82.717 374 104.002 374z" opacity="1" data-original="#ffebd2"></path><path fill="#ffd9ad" d="M396.002 374v6a8 8 0 0 1-8 8h-260c-25.266 0-41.882 22.714-38.587 44.686 1.165 7.768-8.26 12.51-13.675 6.82C52.179 414.746 69.976 374 104.002 374z" opacity="1" data-original="#ffd9ad"></path><path fill="#cbe3fa" d="M201.322 413v47.06c0 7.86-7.5 13.57-15.13 11.52l-18.19-4.89-18.19 4.89c-7.63 2.05-15.13-3.66-15.13-11.52V413z" opacity="1" data-original="#cbe3fa"></path><path fill="#eef7ff" d="M155.831 465.177c1.06 2.222-.277 4.86-2.654 5.498l-3.365.904c-7.63 2.05-15.13-3.66-15.13-11.52V413h20v47.06c0 1.85.415 3.58 1.149 5.117z" opacity="1" data-original="#eef7ff"></path><path fill="#fff0a6" d="M338.002 134v16c0 8.84-7.16 16-16 16h-34v108c0 8.84-7.16 16-16 16h-16c-8.84 0-16-7.16-16-16V166h-32c-8.84 0-16-7.16-16-16v-16c0-8.84 7.16-16 16-16h32V90c0-8.84 7.16-16 16-16h16c8.84 0 16 7.16 16 16v28h34c8.84 0 16 7.16 16 16z" opacity="1" data-original="#fff0a6"></path><path fill="#ffe773" d="M288.002 187.252V274c0 8.837-7.163 16-16 16h-16c-8.837 0-16-7.163-16-16v-84.921c0-4.396 3.547-7.996 7.943-7.999a277.877 277.877 0 0 0 31.192-1.777c4.73-.537 8.865 3.189 8.865 7.949z" opacity="1" data-original="#ffe773"></path><path d="M272.002 66h-16c-13.233 0-24 10.767-24 24v20h-24c-13.233 0-24 10.767-24 24v16c0 13.233 10.767 24 24 24h24v100c0 13.233 10.767 24 24 24h16c13.233 0 24-10.767 24-24V166a8 8 0 0 0-16 0v108c0 4.411-3.589 8-8 8h-16c-4.411 0-8-3.589-8-8V166a8 8 0 0 0-8-8h-32c-4.412 0-8-3.589-8-8v-16c0-4.411 3.589-8 8-8h32a8 8 0 0 0 8-8V90c0-4.411 3.589-8 8-8h16c4.411 0 8 3.589 8 8v28a8 8 0 0 0 8 8h34c4.411 0 8 3.589 8 8v16a7.975 7.975 0 0 1-3.002 6.248 8 8 0 1 0 10.01 12.482c5.715-4.583 8.993-11.41 8.993-18.73v-16c0-13.233-10.767-24-24-24h-26V90c-.001-13.233-10.767-24-24.001-24z" fill="#000000" opacity="1" data-original="#000000"></path><path d="M182.346 217.657a7.999 7.999 0 0 0 11.313 0l16-16a7.998 7.998 0 0 0 0-11.313 8 8 0 0 0-11.313 0l-16 16a7.998 7.998 0 0 0 0 11.313zM329.659 190.343a8 8 0 0 0-11.313 0 7.998 7.998 0 0 0 0 11.313l16 16a7.974 7.974 0 0 0 5.657 2.343c7.062 0 10.712-8.602 5.657-13.657zM193.659 66.343a8 8 0 0 0-11.313 0 7.998 7.998 0 0 0 0 11.313l16 16a7.974 7.974 0 0 0 5.657 2.343c7.062 0 10.712-8.602 5.657-13.657zM329.659 93.657l16-16a7.998 7.998 0 0 0 0-11.313 8 8 0 0 0-11.313 0l-16 16C313.291 87.397 316.94 96 324.002 96a7.974 7.974 0 0 0 5.657-2.343z" fill="#000000" opacity="1" data-original="#000000"></path><path d="M396.002 421a8 8 0 0 0 8-8v-31.528c10.841-2.307 19-11.954 19-23.472V24c0-13.233-10.767-24-24-24H165.647a8 8 0 0 0 0 16h233.355c4.411 0 8 3.589 8 8v334c0 4.411-3.589 8-8 8h-295c-11.87 0-22.719 4.432-31 11.717V47c0-17.093 13.907-31 31-31v307a8 8 0 0 0 16 0V8a8 8 0 0 0-8-8h-8c-25.916 0-47 21.084-47 47v366c0 25.916 21.084 47 47 47h22.677c0 13.29 12.564 22.701 25.204 19.307l16.119-4.329c17.216 4.623 17.837 5.027 21.375 5.027 10.687 0 19.947-8.649 19.947-19.944 0-.1-9.616-.061 201.677-.061a8 8 0 0 0 0-16H209.325v-23zm-202.677 39.061c0 2.59-2.499 4.48-5.054 3.793l-18.194-4.886a8.001 8.001 0 0 0-4.15 0l-18.194 4.886c-2.562.688-5.054-1.209-5.054-3.793V452a8 8 0 0 0-8-8h-30.677c-17.093 0-31-13.907-31-31s13.907-31 31-31h284v23H123.39a8 8 0 0 0 0 16h69.936v39.061z" fill="#000000" opacity="1" data-original="#000000"></path></g></svg>