<svg xmlns="http://www.w3.org/2000/svg" version="1.1" xmlns:xlink="http://www.w3.org/1999/xlink" width="512" height="512" x="0" y="0" viewBox="0 0 480.006 480.006" style="enable-background:new 0 0 512 512" xml:space="preserve" class=""><g><path fill="#fff8d6" d="M399.003 8h-295c-21.54 0-39 17.46-39 39 0 51.53-.119 379.661.01 365.603C64.804 434.301 83.026 452 104.773 452h283.23a8 8 0 0 0 8-8v-70h3c8.84 0 16-7.16 16-16V24c0-8.84-7.16-16-16-16z" opacity="1" data-original="#fff8d6"></path><path fill="#fff0a6" d="M415.003 140.594V358c0 8.837-7.163 16-16 16h-287V159.385c0-5.912 6.182-9.778 11.499-7.193 88.233 42.898 192.425 39.04 279.097-18.271 5.319-3.517 12.404.296 12.404 6.673z" opacity="1" data-original="#fff0a6"></path><path fill="#fff0a6" d="M112.003 8v366h-8c-21.54 0-39 17.46-39 39V47c0-21.54 17.46-39 39-39z" opacity="1" data-original="#fff0a6"></path><path fill="#ffe773" d="M112.003 154.27V374h-8c-21.54 0-39 17.46-39 39V162.475c0-2.259.961-4.407 2.625-5.935 6.944-6.375 16.207-10.269 26.375-10.269h10a7.999 7.999 0 0 1 8 7.999z" opacity="1" data-original="#ffe773"></path><path fill="#ffebd2" d="M396.003 374v70a8 8 0 0 1-8 8h-283.23c-21.869 0-40.181-17.896-39.762-39.761C65.418 391.051 82.718 374 104.003 374z" opacity="1" data-original="#ffebd2"></path><path fill="#ffd9ad" d="M396.003 374v6a8 8 0 0 1-8 8h-260c-25.266 0-41.882 22.714-38.587 44.686 1.165 7.768-8.26 12.51-13.675 6.82C52.179 414.746 69.976 374 104.003 374z" opacity="1" data-original="#ffd9ad"></path><path fill="#ff6d7a" d="M201.323 413v47.06c0 7.86-7.5 13.57-15.13 11.52l-18.19-4.89-18.19 4.89c-7.63 2.05-15.13-3.66-15.13-11.52V413z" opacity="1" data-original="#ff6d7a"></path><path fill="#ff8c95" d="M155.832 465.177c1.06 2.222-.277 4.86-2.654 5.498l-3.365.904c-7.63 2.05-15.13-3.66-15.13-11.52V413h20v47.06c0 1.85.415 3.58 1.149 5.117z" opacity="1" data-original="#ff8c95"></path><path fill="#eef7ff" d="M264.003 135c54.48 0 97.56 46.15 93.77 100.62v.38c-201.954 0-187.54.211-187.54-.38-3.78-54.39 39.21-100.62 93.77-100.62z" opacity="1" data-original="#eef7ff"></path><path fill="#cbe3fa" d="M357.773 235.62c0 .591 14.388.38-187.54.38v-.38c-1.437-20.687 3.89-40.193 14.049-56.425 1.775-2.837 5.096-4.318 8.377-3.656 46.357 9.353 93.271 6.721 136.984-6.857 3.191-.991 6.645.152 8.692 2.794 13.614 17.563 21.114 40.035 19.438 64.144z" opacity="1" data-original="#cbe3fa"></path><path fill="#b5d5f5" d="M367.84 236c5.393 0 9.197 5.214 7.644 10.378C371.028 261.2 357.275 272 341.003 272h-154c-16.272 0-30.025-10.8-34.481-25.622-1.553-5.164 2.251-10.378 7.644-10.378z" opacity="1" data-original="#b5d5f5"></path><path d="M334.422 313a8 8 0 0 0 0 16h19.581a8 8 0 0 0 0-16zM174.003 313a8 8 0 0 0 0 16h113.064a8 8 0 0 0 0-16zM187.003 280h154c24.262 0 44-19.738 44-44a8 8 0 0 0-8-8H214.68a8 8 0 0 0 0 16h153.159c-3.451 11.554-14.176 20-26.836 20h-154c-12.66 0-23.385-8.446-26.836-20h10.065c4.374 0 8.354-3.569 7.981-8.938C174.75 185.255 213.995 143 264.003 143c32.904 0 62.441 18.33 77.085 47.838a8 8 0 0 0 14.332-7.114c-14.96-30.146-43.037-50.438-75.48-55.482.736-9.522-6.832-17.242-15.937-17.242-9.165 0-16.656 7.777-15.938 17.218-47.811 7.392-85.654 48.853-86.064 99.782h-10.998a8 8 0 0 0-8 8c0 24.262 19.738 44 44 44zM188.422 50.115a8 8 0 0 0-11.304.466c-17.767 19.295-10.343 32.617-4.923 42.345 5.271 9.459 9.433 16.93-1.004 33.88a8 8 0 1 0 13.624 8.389c15.354-24.936 7.264-39.455 1.356-50.057-5.099-9.151-7.209-12.938 2.717-23.719a8 8 0 0 0-.466-11.304zM356.912 50.115a8 8 0 0 0-11.304.466c-17.767 19.295-10.343 32.617-4.923 42.345 5.271 9.459 9.433 16.93-1.004 33.88a8 8 0 1 0 13.624 8.389c15.354-24.936 7.264-39.455 1.356-50.057-5.099-9.151-7.21-12.938 2.717-23.719a8 8 0 0 0-.466-11.304zM273.912 50.115a8 8 0 0 0-11.304.466c-16.342 17.747-11.729 30.044-5.605 41.117a8 8 0 1 0 14.001-7.744c-4.205-7.602-6.521-11.789 3.375-22.535a8 8 0 0 0-.467-11.304z" fill="#000000" opacity="1" data-original="#000000"></path><path d="M396.003 421a8 8 0 0 0 8-8v-31.528c10.841-2.307 19-11.953 19-23.472V24c0-13.233-10.767-24-24-24H165.648a8 8 0 0 0 0 16h233.355c4.411 0 8 3.589 8 8v334c0 4.411-3.589 8-8 8h-295c-11.87 0-22.719 4.432-31 11.717V47c0-17.094 13.907-31 31-31v307a8 8 0 0 0 16 0V8a8 8 0 0 0-8-8h-8c-25.916 0-47 21.084-47 47v366c0 25.916 21.084 47 47 47h22.677c0 13.27 12.538 22.703 25.204 19.308l16.119-4.33c17.218 4.625 17.84 5.028 21.375 5.028 10.686 0 19.948-8.649 19.948-19.944 0-.1-9.616-.062 201.677-.062a8 8 0 0 0 0-16H209.326v-23zm-202.677 39.062c0 2.587-2.496 4.482-5.054 3.793l-18.194-4.887a8.001 8.001 0 0 0-4.15 0l-18.193 4.887c-2.552.685-5.054-1.199-5.054-3.793V452a8 8 0 0 0-8-8h-30.677c-17.093 0-31-13.906-31-31s13.907-31 31-31h284v23H123.39a8 8 0 0 0 0 16h69.936z" fill="#000000" opacity="1" data-original="#000000"></path></g></svg>