<svg xmlns="http://www.w3.org/2000/svg" version="1.1" xmlns:xlink="http://www.w3.org/1999/xlink" width="512" height="512" x="0" y="0" viewBox="0 0 480.006 480.006" style="enable-background:new 0 0 512 512" xml:space="preserve" class=""><g><path fill="#ff8c95" d="M399.003 8h-295c-21.54 0-39 17.46-39 39 0 51.53-.119 379.661.01 365.603C64.804 434.301 83.026 452 104.773 452h283.23a8 8 0 0 0 8-8v-70h3c8.84 0 16-7.16 16-16V24c0-8.84-7.16-16-16-16z" opacity="1" data-original="#ff8c95"></path><path fill="#ff6d7a" d="M415.003 140.594V358c0 8.837-7.163 16-16 16h-287V159.385c0-5.912 6.182-9.778 11.499-7.193 88.233 42.898 192.425 39.04 279.097-18.271 5.319-3.517 12.404.296 12.404 6.673z" opacity="1" data-original="#ff6d7a"></path><path fill="#fe4f60" d="M112.003 8v366h-8c-21.54 0-39 17.46-39 39V47c0-21.54 17.46-39 39-39z" opacity="1" data-original="#fe4f60"></path><path fill="#e84857" d="M112.003 154.27V374h-8c-21.54 0-39 17.46-39 39V162.475c0-2.259.961-4.407 2.625-5.935 6.944-6.375 16.207-10.269 26.375-10.269h10a7.999 7.999 0 0 1 8 7.999z" opacity="1" data-original="#e84857"></path><path fill="#ffebd2" d="M396.003 374v70a8 8 0 0 1-8 8h-283.23c-21.869 0-40.181-17.896-39.762-39.761C65.418 391.051 82.718 374 104.003 374z" opacity="1" data-original="#ffebd2"></path><path fill="#ffd9ad" d="M396.003 374v6a8 8 0 0 1-8 8h-260c-25.266 0-41.882 22.714-38.587 44.686 1.165 7.768-8.26 12.51-13.675 6.82C52.179 414.746 69.976 374 104.003 374z" opacity="1" data-original="#ffd9ad"></path><path fill="#ff6d7a" d="M201.323 413v47.06c0 7.86-7.5 13.57-15.13 11.52l-18.19-4.89-18.19 4.89c-7.63 2.05-15.13-3.66-15.13-11.52V413z" opacity="1" data-original="#ff6d7a"></path><path fill="#ff8c95" d="M155.832 465.177c1.06 2.222-.277 4.86-2.654 5.498l-3.365.904c-7.63 2.05-15.13-3.66-15.13-11.52V413h20v47.06c0 1.85.415 3.58 1.149 5.117z" opacity="1" data-original="#ff8c95"></path><path fill="#ff6d7a" d="M257.003 151.8c39.15-34.21 114.23-19.38 98.99 58.81-8.08 41.43-39.03 80.04-87.55 92.35-7.57 1.9-15.3 1.9-22.88 0-48.52-12.31-79.47-50.92-87.55-92.35-15.24-78.19 59.84-93.02 98.99-58.81z" opacity="1" data-original="#ff6d7a"></path><path fill="#fe4f60" d="M268.443 302.96c-7.57 1.9-15.3 1.9-22.88 0-48.52-12.31-79.47-50.92-87.55-92.35-2.67-13.707-2.565-25.461-.368-35.348 1.008-4.54 5.674-7.219 10.133-5.898 58.54 17.348 119.856 15.386 176.31-5.606 4.199-1.561 8.888.567 10.369 4.795 14.091 40.225-13.014 115.886-86.014 134.407z" opacity="1" data-original="#fe4f60"></path><path fill="#ff8c95" d="M325.743 236.06c23.73-11.83 58.87 5.18 41.25 41.8-9.34 19.4-29.6 34.46-55.13 34.27-3.99-.05-7.8-1.04-11.3-2.96-22.35-12.34-32.63-35.39-31.27-56.88 2.58-40.56 41.55-38.17 56.45-16.23z" opacity="1" data-original="#ff8c95"></path><path d="M150.164 212.144c9.062 46.47 43.792 85.977 93.451 98.575 14.247 3.57 25.894 1.068 39.805-4.04a69.839 69.839 0 0 0 13.3 9.506c4.943 2.71 10.098 3.942 15.624 3.942 26.651 0 50.317-14.826 61.854-38.794 8.69-18.057 7.14-34.859-4.255-46.1-10.304-10.164-27.001-13.469-41.686-8.802-10.513-11.266-26.691-16.567-40.651-12.752-15.44 4.215-25.024 18.103-26.296 38.102a7.998 7.998 0 0 0 7.476 8.491c4.405.302 8.212-3.066 8.492-7.476 2.079-32.703 31.146-27.995 41.842-12.247a8.002 8.002 0 0 0 10.186 2.667c17.022-8.481 44.693 1.638 30.476 31.177-8.515 17.688-26.591 30.013-47.838 29.731a15.83 15.83 0 0 1-7.512-1.959c-8.298-4.583-12.51-9.64-13.686-10.713a7.995 7.995 0 0 0-5.667-2.093c-3.252.104-5.804 2.597-18.577 5.839-6.306 1.578-12.697 1.576-18.976.006-42.092-10.68-73.382-43.681-81.659-86.123-13.83-70.937 52.792-80.162 85.87-51.254a7.999 7.999 0 0 0 10.529 0c31.299-27.353 91.281-20.34 87.568 38.356a8.001 8.001 0 0 0 7.479 8.489 7.997 7.997 0 0 0 8.489-7.479c1.869-29.572-10.013-52.916-32.599-64.046-23.348-11.506-53.775-7.916-76.204 8.43-23.621-17.199-56.082-20.162-79.591-6.622-24.163 13.919-34.094 42.053-27.244 77.189zM354.003 70a8 8 0 0 0 0-16h-19.581a8 8 0 0 0 0 16zM287.067 70a8 8 0 0 0 0-16H174.003a8 8 0 0 0 0 16z" fill="#000000" opacity="1" data-original="#000000"></path><path d="M396.003 421a8 8 0 0 0 8-8v-31.528c10.841-2.307 19-11.953 19-23.472V24c0-13.233-10.767-24-24-24H165.648a8 8 0 0 0 0 16h233.354c4.411 0 8 3.589 8 8v334c0 4.411-3.589 8-8 8h-295c-11.87 0-22.719 4.432-31 11.717V47c0-17.094 13.906-31 31-31v307a8 8 0 0 0 16 0V8a8 8 0 0 0-8-8h-8c-25.916 0-47 21.084-47 47v366c0 25.916 21.084 47 47 47h22.678c0 13.288 12.562 22.702 25.204 19.308l16.118-4.33c17.295 4.646 17.865 5.028 21.374 5.028 10.686 0 19.948-8.649 19.948-19.944 0-.1-9.616-.062 201.678-.062a8 8 0 0 0 0-16H209.325v-23zm-202.678 39.062c0 2.579-2.486 4.481-5.054 3.793l-18.193-4.887a8.044 8.044 0 0 0-4.15 0l-18.192 4.887c-2.57.688-5.055-1.214-5.055-3.793V452a8 8 0 0 0-8-8h-30.678c-17.094 0-31-13.906-31-31s13.906-31 31-31h284v23H123.39a8 8 0 0 0 0 16h69.936v39.062z" fill="#000000" opacity="1" data-original="#000000"></path></g></svg>