<svg xmlns="http://www.w3.org/2000/svg" version="1.1" xmlns:xlink="http://www.w3.org/1999/xlink" width="512" height="512" x="0" y="0" viewBox="0 0 682.667 682.667" style="enable-background:new 0 0 512 512" xml:space="preserve" class=""><g><defs><clipPath id="a" clipPathUnits="userSpaceOnUse"><path d="M0 512h512V0H0Z" fill="#000000" opacity="1" data-original="#000000"></path></clipPath></defs><g clip-path="url(#a)" transform="matrix(1.33333 0 0 -1.33333 0 682.667)"><path d="M0 0c0 29.133-23.617 52.75-52.75 52.75C-23.617 52.75 0 76.367 0 105.5c0-29.133 23.617-52.75 52.75-52.75C23.617 52.75 0 29.133 0 0" style="fill-opacity:1;fill-rule:nonzero;stroke:none" transform="translate(432.409 290.494)" fill="#ffce62" data-original="#ffce62"></path><path d="M0 0c0 29.133 23.617 52.75 52.75 52.75C23.617 52.75 0 76.367 0 105.5c0-29.133-23.617-52.75-52.75-52.75C-23.617 52.75 0 29.133 0 0" style="fill-opacity:1;fill-rule:nonzero;stroke:none" transform="translate(79.591 290.494)" fill="#ffce62" data-original="#ffce62"></path><path d="m0 0-31.296-22.31c-5.084-3.624-11.858 1.298-9.982 7.252l11.547 36.659-30.79 22.969c-5.019 3.744-2.371 11.721 3.89 11.721h38.256L-6.172 92.9c1.977 5.932 10.367 5.932 12.344 0l12.203-36.609h38.256c6.261 0 8.909-7.977 3.891-11.721L29.731 21.601l11.547-36.659c1.876-5.954-4.898-10.876-9.982-7.252z" style="fill-opacity:1;fill-rule:nonzero;stroke:none" transform="translate(256 404.65)" fill="#ff7e99" data-original="#ff7e99"></path><path d="M0 0h-50.84C-127.929 0-196.932-47.819-224-120H0Z" style="fill-opacity:1;fill-rule:nonzero;stroke:none" transform="translate(480 174)" fill="#fff3da" data-original="#fff3da" class=""></path><path d="M0 0h50.84C127.929 0 196.932-47.819 224-120H0Z" style="fill-opacity:1;fill-rule:nonzero;stroke:none" transform="translate(32 174)" fill="#fff3da" data-original="#fff3da" class=""></path><path d="M0 0h-448c-12.15 0-22 9.85-22 22s9.85 22 22 22H0c12.15 0 22-9.85 22-22S12.15 0 0 0" style="fill-opacity:1;fill-rule:nonzero;stroke:none" transform="translate(480 10)" fill="#8682e6" data-original="#8682e6"></path><path d="M0 0h-448c-12.15 0-22 9.85-22 22v0c0 12.15 9.85 22 22 22H0c12.15 0 22-9.85 22-22v0C22 9.85 12.15 0 0 0Z" style="stroke-width:20;stroke-linecap:round;stroke-linejoin:round;stroke-miterlimit:10;stroke-dasharray:none;stroke-opacity:1" transform="translate(480 10)" fill="none" stroke="#000000" stroke-width="20" stroke-linecap="round" stroke-linejoin="round" stroke-miterlimit="10" stroke-dasharray="none" stroke-opacity="" data-original="#000000" class=""></path><path d="M0 0h-50.84C-127.929 0-196.932-47.819-224-120v0H0Z" style="stroke-width:20;stroke-linecap:round;stroke-linejoin:round;stroke-miterlimit:10;stroke-dasharray:none;stroke-opacity:1" transform="translate(480 174)" fill="none" stroke="#000000" stroke-width="20" stroke-linecap="round" stroke-linejoin="round" stroke-miterlimit="10" stroke-dasharray="none" stroke-opacity="" data-original="#000000" class=""></path><path d="M0 0h50.84C127.929 0 196.932-47.819 224-120v0H0Z" style="stroke-width:20;stroke-linecap:round;stroke-linejoin:round;stroke-miterlimit:10;stroke-dasharray:none;stroke-opacity:1" transform="translate(32 174)" fill="none" stroke="#000000" stroke-width="20" stroke-linecap="round" stroke-linejoin="round" stroke-miterlimit="10" stroke-dasharray="none" stroke-opacity="" data-original="#000000" class=""></path><path d="M0 0a238.88 238.88 0 0 1-74.395-102.684" style="stroke-width:20;stroke-linecap:round;stroke-linejoin:round;stroke-miterlimit:10;stroke-dasharray:none;stroke-opacity:1" transform="translate(330.395 178.12)" fill="none" stroke="#000000" stroke-width="20" stroke-linecap="round" stroke-linejoin="round" stroke-miterlimit="10" stroke-dasharray="none" stroke-opacity="" data-original="#000000" class=""></path><path d="M0 0a238.98 238.98 0 0 1-70.43-10.588" style="stroke-width:20;stroke-linecap:round;stroke-linejoin:round;stroke-miterlimit:10;stroke-dasharray:none;stroke-opacity:1" transform="translate(480 230.668)" fill="none" stroke="#000000" stroke-width="20" stroke-linecap="round" stroke-linejoin="round" stroke-miterlimit="10" stroke-dasharray="none" stroke-opacity="" data-original="#000000" class=""></path><path d="M0 0c99.723 0 188.985-61.859 224-155.232" style="stroke-width:20;stroke-linecap:round;stroke-linejoin:round;stroke-miterlimit:10;stroke-dasharray:none;stroke-opacity:1" transform="translate(32 230.668)" fill="none" stroke="#000000" stroke-width="20" stroke-linecap="round" stroke-linejoin="round" stroke-miterlimit="10" stroke-dasharray="none" stroke-opacity="" data-original="#000000" class=""></path><path d="M0 0v0c0 29.133-23.617 52.75-52.75 52.75v0C-23.617 52.75 0 76.367 0 105.5v0c0-29.133 23.617-52.75 52.75-52.75v0C23.617 52.75 0 29.133 0 0Z" style="stroke-width:20;stroke-linecap:round;stroke-linejoin:round;stroke-miterlimit:10;stroke-dasharray:none;stroke-opacity:1" transform="translate(432.409 290.494)" fill="none" stroke="#000000" stroke-width="20" stroke-linecap="round" stroke-linejoin="round" stroke-miterlimit="10" stroke-dasharray="none" stroke-opacity="" data-original="#000000" class=""></path><path d="M0 0v0c0 29.133 23.617 52.75 52.75 52.75v0C23.617 52.75 0 76.367 0 105.5v0c0-29.133-23.617-52.75-52.75-52.75v0C-23.617 52.75 0 29.133 0 0Z" style="stroke-width:20;stroke-linecap:round;stroke-linejoin:round;stroke-miterlimit:10;stroke-dasharray:none;stroke-opacity:1" transform="translate(79.591 290.494)" fill="none" stroke="#000000" stroke-width="20" stroke-linecap="round" stroke-linejoin="round" stroke-miterlimit="10" stroke-dasharray="none" stroke-opacity="" data-original="#000000" class=""></path><path d="M0 0v-90.46" style="stroke-width:20;stroke-linecap:round;stroke-linejoin:round;stroke-miterlimit:10;stroke-dasharray:none;stroke-opacity:1" transform="translate(256 256.127)" fill="none" stroke="#000000" stroke-width="20" stroke-linecap="round" stroke-linejoin="round" stroke-miterlimit="10" stroke-dasharray="none" stroke-opacity="" data-original="#000000" class=""></path><path d="M0 0v-82" style="stroke-width:20;stroke-linecap:round;stroke-linejoin:round;stroke-miterlimit:10;stroke-dasharray:none;stroke-opacity:1" transform="translate(189.667 322.333)" fill="none" stroke="#000000" stroke-width="20" stroke-linecap="round" stroke-linejoin="round" stroke-miterlimit="10" stroke-dasharray="none" stroke-opacity="" data-original="#000000" class=""></path><path d="M0 0v-82" style="stroke-width:20;stroke-linecap:round;stroke-linejoin:round;stroke-miterlimit:10;stroke-dasharray:none;stroke-opacity:1" transform="translate(322.333 322.333)" fill="none" stroke="#000000" stroke-width="20" stroke-linecap="round" stroke-linejoin="round" stroke-miterlimit="10" stroke-dasharray="none" stroke-opacity="" data-original="#000000" class=""></path><path d="M0 0v0" style="stroke-width:20;stroke-linecap:round;stroke-linejoin:round;stroke-miterlimit:10;stroke-dasharray:none;stroke-opacity:1" transform="translate(256 309)" fill="none" stroke="#000000" stroke-width="20" stroke-linecap="round" stroke-linejoin="round" stroke-miterlimit="10" stroke-dasharray="none" stroke-opacity="" data-original="#000000" class=""></path><path d="m0 0-31.296-22.31c-5.084-3.624-11.858 1.298-9.982 7.252l11.547 36.659-30.79 22.969c-5.019 3.744-2.371 11.721 3.89 11.721h38.256L-6.172 92.9c1.977 5.932 10.367 5.932 12.344 0l12.203-36.609h38.256c6.261 0 8.909-7.977 3.891-11.721L29.731 21.601l11.547-36.659c1.876-5.954-4.898-10.876-9.982-7.252z" style="stroke-width:20;stroke-linecap:round;stroke-linejoin:round;stroke-miterlimit:10;stroke-dasharray:none;stroke-opacity:1" transform="translate(256 404.65)" fill="none" stroke="#000000" stroke-width="20" stroke-linecap="round" stroke-linejoin="round" stroke-miterlimit="10" stroke-dasharray="none" stroke-opacity="" data-original="#000000" class=""></path><path d="M0 0c-36.742-9.091-70.206-27.773-97.093-53.761" style="stroke-width:20;stroke-linecap:round;stroke-linejoin:round;stroke-miterlimit:10;stroke-dasharray:none;stroke-opacity:1" transform="translate(370.058 107.762)" fill="none" stroke="#000000" stroke-width="20" stroke-linecap="round" stroke-linejoin="round" stroke-miterlimit="10" stroke-dasharray="none" stroke-opacity="" data-original="#000000" class=""></path><path d="M0 0h-58.67" style="stroke-width:20;stroke-linecap:round;stroke-linejoin:round;stroke-miterlimit:10;stroke-dasharray:none;stroke-opacity:1" transform="translate(480 114)" fill="none" stroke="#000000" stroke-width="20" stroke-linecap="round" stroke-linejoin="round" stroke-miterlimit="10" stroke-dasharray="none" stroke-opacity="" data-original="#000000" class=""></path><path d="M0 0c36.742-9.091 70.206-27.773 97.093-53.761" style="stroke-width:20;stroke-linecap:round;stroke-linejoin:round;stroke-miterlimit:10;stroke-dasharray:none;stroke-opacity:1" transform="translate(141.942 107.762)" fill="none" stroke="#000000" stroke-width="20" stroke-linecap="round" stroke-linejoin="round" stroke-miterlimit="10" stroke-dasharray="none" stroke-opacity="" data-original="#000000" class=""></path><path d="M0 0h58.67" style="stroke-width:20;stroke-linecap:round;stroke-linejoin:round;stroke-miterlimit:10;stroke-dasharray:none;stroke-opacity:1" transform="translate(32 114)" fill="none" stroke="#000000" stroke-width="20" stroke-linecap="round" stroke-linejoin="round" stroke-miterlimit="10" stroke-dasharray="none" stroke-opacity="" data-original="#000000" class=""></path><path d="M0 0v0" style="stroke-width:20;stroke-linecap:round;stroke-linejoin:round;stroke-miterlimit:10;stroke-dasharray:none;stroke-opacity:1" transform="translate(368 202.83)" fill="none" stroke="#000000" stroke-width="20" stroke-linecap="round" stroke-linejoin="round" stroke-miterlimit="10" stroke-dasharray="none" stroke-opacity="" data-original="#000000" class=""></path></g></g></svg>