<svg xmlns="http://www.w3.org/2000/svg" version="1.1" xmlns:xlink="http://www.w3.org/1999/xlink" width="512" height="512" x="0" y="0" viewBox="0 0 24 24" style="enable-background:new 0 0 512 512" xml:space="preserve" class=""><g><path fill="#34b4e0" fill-rule="evenodd" d="M7.469 6.414a.75.75 0 1 0-.937 1.172l5 4a.75.75 0 0 0 .937 0l5-4a.75.75 0 1 0-.938-1.172L12 10.04zm0 6a.75.75 0 1 0-.937 1.172l5 4a.75.75 0 0 0 .937 0l5-4a.75.75 0 1 0-.938-1.172L12 16.04z" clip-rule="evenodd" opacity="1" data-original="#000000" class=""></path></g></svg>